/* XPM */
static char *close_active_xpm[] = {
/* columns rows colors chars-per-pixel */
"41 44 74 1 ",
"  c #E5444D",
". c #EC454D",
"X c #EF484F",
"o c #E34650",
"O c #E34B54",
"+ c #EC4B53",
"@ c #F14E54",
"# c #EC5057",
"$ c #E4535B",
"% c #EA535A",
"& c #EB585F",
"* c #F25056",
"= c #E15760",
"- c #E35C64",
"; c #E95C63",
": c #E05F68",
"> c #DF6A72",
", c #DF727A",
"< c #E66067",
"1 c #E3646C",
"2 c #E16B73",
"3 c #E17077",
"4 c #E2737B",
"5 c #E2787F",
"6 c #DE7D84",
"7 c #E17D85",
"8 c #DE848B",
"9 c #DF959A",
"0 c #DF999E",
"q c #E18C92",
"w c #E2959A",
"e c #E0999E",
"r c #E09FA4",
"t c #DFACB1",
"y c #DFB5B9",
"u c #E0A6AB",
"i c #E1A9AE",
"p c #E0ABB0",
"a c #E2B1B5",
"s c #E3B6B9",
"d c #E0BDBF",
"f c #DEBFC2",
"g c #E1BDC1",
"h c #DEC0C3",
"j c #DFC3C6",
"k c #DFC4C7",
"l c #DFDEDF",
"z c #E0C0C3",
"x c #E2C6C9",
"c c #E2C9CD",
"v c #E3CACD",
"b c #E2CCCF",
"n c #E3CFD2",
"m c #E0D0D2",
"M c #E2D0D3",
"N c #E1D3D4",
"B c #E3D3D6",
"V c #E0D8DA",
"C c #E3D8DA",
"Z c #E0DBDC",
"A c #E0DFE0",
"S c #E3DFE1",
"D c #E4DFE1",
"F c #E1E1E1",
"G c #E3E2E3",
"H c #E4E1E2",
"J c #E1E3E4",
"K c #E2E3E4",
"L c #E4E3E4",
"P c #E3E5E6",
"I c #E4E4E4",
"U c #E6E5E6",
"Y c #E5E7E8",
"T c #E5E8E9",
/* pixels */
"UUUUUUUUUUUUUUUUUUUUUUUUUUUUUUUUUUUUUUUUU",
"UUUUUUUUYUUUUUUUUUUUUUUUUUUUUUUUUUUUUUUUU",
"UUUUUUUUUUUUUUUUUUUUUUUUUUUUUUUUUUUUUUUUU",
"UUUUUUUUUUUUUUUUUUUUUUUUUUUUUUUUUUUUUUUUU",
"UUUUUUUUUUUUUUUUUUUUUUUUUUUUUUUUUUUUUUUUU",
"UUUUUUUUUUUUUUUUUUUUUUUUUUUUUUUUUUUUUUUUU",
"UUUUUUUUUUUUULUUUUUUUUUUUUUUUUUUUUUUUUUUU",
"ULLULUUULULULUUUULULULLUULLULUUUULLUULLUU",
"LLULLULULULUULULULLUUKULLULULULUULULULULU",
"UULUULULULULLULUUUUYUUUULUULULULLULULULUU",
"LUULUULUULLUULUYYYTTTTTYYYUULULUULIUULUUU",
"ULULLLUULULLULLMxgsasssdxBHLUULLLIUILULLG",
"GLLLLLLLLLKLLDMp8>=$O$=>8pMGLLLLIIIUHIIHH",
"LLLLLLLLLLUDMpq3;%. .. %<3qpnSULIHHIIIIII",
"LLLLLLLLLGHni5O.**@@***@*+O5inGLHILIIIIII",
"LLLLLLLLUGbu3%X@@******@@++%2unSUULIIHIHI",
"LLLLLLLLUCi4OX*************X#7iCPHHPHUIII",
"LLLLLLLHHc7O+**************++O7cGGUGGGGUI",
"LLKHLPGPMi1.@***************@.1iMGJGJHUHG",
"GGGGGHPLs6;@****************@@;7sGUGHJGGG",
"GGGGGGPZr:%@****************@@%1uGUGGGGGG",
"GGHKGGUG0O+*****************@*+O9GPGGGGGG",
"GGGGGGPGw X@**********@*******XowlPGGGGGG",
"GGGGJGPGw .*******************. 9SPGGGGGG",
"HGGGGGPSw .**************#****X wGJGGGAGG",
"SGGlAGPl0O+*******************+O0lPGGZGGG",
"GGGGAGPZr$+@******************+=rGJAGGGlG",
"GSlGKGGGt4&@+****************+;,pGPGGGGGG",
"AGGGAGGGj9<.@***************@X<0jGGGAGGGA",
"GGAGKAGACy, @***************@ 3zlPGAGGAGG",
"AGGAAGGlGl91+X*************X+1eBAAGAAGGAA",
"AAAAGAAGAlhw-++@*********@@O-wflGAAGAAAAG",
"GGAAGllGGlly91 .+*****@@@X.19flCGAGGZGAAG",
"AAAGGlGlGlGlf92;;++XX++$&;>ehCGlAAAAGAAGA",
"AAAGlGGKllAAlMhe,-O   O-,0fMllAGAGAAGAllA",
"GGAAlGlAGGlGGGljt0qq8qq0pjlGPAAAAlGJAAGGG",
"AAGAAGAAlPAGlGllAAlAlllAZGlAAGGAGAGAAAJGA",
"AAAAAAAAlAlAlZSGAGGAGGPAAGGAAlAAAAAAAAAAl",
"AAAAAAAAlAlAAAllAAAAllAAlAAAAAAAAAAlAAAAA",
"AAAAAAAAAAAAAAAAAAAZlllAAAAAAAAAAAAAAAAAA",
"AAAAllZGAAAAAAAAAAAAAAAAAAAAAAAAAAAAAAAAA",
"lAAlAGlAAlAAAAlAAAAAAAAAlAAAAAAAAAAAAlAAA",
"lllllllllllllllllllllllllllllllllllllllll",
"lllllllllllllllllllllllllllllllllllllllll"
};
