/* XPM */
static char *close_inactive_xpm[] = {
/* columns rows colors chars-per-pixel */
"41 44 21 1 ",
"  c #C2C2C2",
". c #C3C3C3",
"X c #C4C3C4",
"o c #C7C6C7",
"O c #C7C7C7",
"+ c #CBCBCB",
"@ c #CCCBCC",
"# c #CDCCCD",
"$ c #CFCFCF",
"% c #D1D0D1",
"& c #D4D3D4",
"* c #D6D6D6",
"= c #D7D7D7",
"- c #D8D7D8",
"; c #D9D8D9",
": c #DBDADB",
"> c #DFDEDF",
", c #E0DEE0",
"< c #E3E2E3",
"1 c #E4E3E4",
"2 c #E6E5E6",
/* pixels */
"22222222222222222222222222222222222222222",
"22222222222222222222222222222222222222222",
"22222222222222222222222222222222222222222",
"22222222222222222222222222222222222222222",
"22222222222222222222222222222222222222222",
"22222222222222222222222222222222222222222",
"22222222222222222222222222222222222222222",
"2112122212121212222121212112122212<2212<2",
"21211212121221212222222212212121<22121222",
"12122121212112121222<22212121212221212<22",
"122122121212211222222222222222212<<222<22",
"212111211121121<>;:;;;;;>,<111122<22<221<",
"<111112111111<,*$+o oooo#;,<<11112<<2111<",
"11111111112<>;%@+oo    o+#%;><2111<2<11<2",
"111111111<1,*#o oo+oo+oo+oo+-,<111<<<2<2<",
"111111112<>*@ooo+o+oo++ooooo#*><1<22<<<2<",
"111111<22<*$ooOOoooo+OOOO+Ooo#*<2<<<112<1",
"1111111<<>#.oO+Oo+o+OO+OOO+Oo.#><<2<11<<1",
"11<111<<>*+.OOO+Ooo++O+OOOOOoo+*>2<<<1<2<",
"<<<<<<<<;+OOOOO+O+OoOOOO+O+OOO+#;<<<<<<<<",
"<<<<<<<<*oooOO+O+OO+OO+O+O+OOOo+*<<<<<<<<",
"<<<<<<2<* OOO+OOOOOOO+OOOOOOO+o.*<<<<<<<<",
"<<<<<<<<%..+OOOO++o+OOOOOO+O+O..%<<<<<<<<",
"<<<<<<<<&.oOO+O+OOOOO+O+O+OOOOo.%<<<<<<<<",
">1<<<1<>%o OO+OOO+O++O+OOOOOOOo.%<<<<<<<<",
"><<1<>1<% ooOO+OOOOOOOOOO++O+Oo.%<<<<<<<<",
"<><><><>*ooOOOOOO+OOO++OOOOOO+Oo%<<<<<<<>",
"<<<<<<<<*+OO+O+OOO+OOOOOO++OOOO+*<<><><><",
"<<<<<<<>;*+oO+O+OO+O+OOOOOOOOo+%;1<<<><><",
"><><><<<>;+.OOOO+OOOOOO++O+OO.+;><<<<<<<<",
"<><><<><<>%+oo+OOO+O+OOOOOOoO+*><><<><<<>",
"><<>>><><<;%O.OOO+OOOO+O+OooO%;><>>><>><>",
"<><><><><>>;%o.OOO+OOOOOO..+%;<<><><><><>",
"><><><><><<>;*+OOOoooOoOO++&;><><><><><><",
"<><>>>><<><>>;;*+o.....o+&;>><<>><><<><>>",
"><><<><>><><2<>;*&*#$$&&*;><><><<><>><><<",
"><><><><><<>>><>>><><>>><><><><>>><><><>>",
">><>>><>>>><<>><<>><>><<<>><<>><><>><>><>",
"<>>>>>>><>>>>>>><><>><>>><>>>><>><><>><><",
">><><>><>>><>><>>>>>>>><>>>>>>>>>>>>>>>>>",
">>>>>>>><>>>>>>>><><>>>><><>><><>><><>><>",
"><>><><>>><>><><>>>>>>><>>>>>>>><>>>>>>>>",
">>>>>>>>>>>>>>>>>>>>>>>>>>>>>>>>>>>>>>>>>",
">>>>>>>>>>>>>>>>>>>>>>>>>>>>>>>>>>>>>>>>>"
};
