/* XPM */
static char *close_prelight_xpm[] = {
/* columns rows colors chars-per-pixel */
"41 44 93 2 ",
"   c #76272A",
".  c #7C292C",
"X  c #822B2E",
"o  c #862D30",
"O  c #8B2E31",
"+  c #993337",
"@  c #9E3438",
"#  c #A4363B",
"$  c #AB393D",
"%  c #B13B3F",
"&  c #B53C41",
"*  c #BE3F44",
"=  c #C34045",
"-  c #C94247",
";  c #CB4348",
":  c #D3464B",
">  c #D7484C",
",  c #DC494E",
"<  c #E5444D",
"1  c #EC454D",
"2  c #F0484F",
"3  c #E34650",
"4  c #E34B53",
"5  c #EB4D53",
"6  c #F14E54",
"7  c #EC5057",
"8  c #E4535B",
"9  c #EA535A",
"0  c #EB585F",
"q  c #F25056",
"w  c #E15760",
"e  c #E35C64",
"r  c #E95C63",
"t  c #E05F68",
"y  c #DF727A",
"u  c #E66067",
"i  c #E3646C",
"p  c #E16B73",
"a  c #E17077",
"s  c #E2737B",
"d  c #E2787F",
"f  c #E17D85",
"g  c #DE848B",
"h  c #DF959A",
"j  c #DF999E",
"k  c #E18C92",
"l  c #E2959A",
"z  c #E0999E",
"x  c #E09FA4",
"c  c #DFACB1",
"v  c #DFB5B9",
"b  c #E0A6AB",
"n  c #E1A9AE",
"m  c #E0ABB0",
"M  c #E2B1B5",
"N  c #E0B6BA",
"B  c #E3B6BA",
"V  c #E4B4B8",
"C  c #DEBFC2",
"Z  c #E3BCC0",
"A  c #DFC2C5",
"S  c #DFC3C6",
"D  c #DFDEDF",
"F  c #E0C0C3",
"G  c #E0C4C7",
"H  c #E2C6C9",
"J  c #E3CACD",
"K  c #E2CCCF",
"L  c #E2CED1",
"P  c #E3CFD2",
"I  c #E1D1D3",
"U  c #E2D0D3",
"Y  c #E3D3D6",
"T  c #E3D4D6",
"R  c #E3D8DA",
"E  c #E1DBDD",
"W  c #E0DFE0",
"Q  c #E4DFE1",
"!  c #E1E0E1",
"~  c #E2E2E3",
"^  c #E3E2E3",
"/  c #E4E0E1",
"(  c #E4E1E2",
")  c #E4E1E3",
"_  c #E4E2E3",
"`  c #E2E3E4",
"'  c #E4E3E4",
"]  c #E3E5E5",
"[  c #E4E5E6",
"{  c #E5E5E6",
"}  c #E6E5E6",
"|  c #E5E7E8",
" . c #E5E9EA",
/* pixels */
"} } } } } } } } } } } } } } } } } } } } } } } } } } } } } } } } } } } } } } } } } ",
"} } } } } } } } } } } } } } } } } } } } } } } } } } } } } } } } } } } } } } } } } ",
"} } } } } } } } } } } } } } } } } } } } } } } } } } } } } } } } } } } } } } } } } ",
"} } } } } } } } } } } } } } } } } } } } } } } } } } } } } } } } } } } } } } } } } ",
"} } } } } } } } } } } } } } } } } } } } } } } } } } } } } } } } } } } } } } } } } ",
"} } } } } } } } } } } } } } } } } } } } } } } } } } } } } } } } } } } } } } } } } ",
"} } } } } } } } } } } } } } } } } } } } } } } } } } } ' } } } } } } } } } } } } } ",
"} ' ' } ' } } } } } ' ' } ' } ' } } ' } ' } ' ' ' } } } ' } } } } ^ } } ^ } ^ } } ",
"' ' } ' ' } ' } ' } ' } } ' } | } ' ' ` } ' } ' } ' } ' } ' } ' ^ } ` } } ^ } } } ",
"} } ' } } ' } ' } ' } ' ' ' } ' } } } } } } } } ' } ' } ' } ' } } } ^ } } } ^ } } ",
"' } } ' } } ' } } ' ' } ' } ' | | |  . . .|  . .} } | ' } ' } ' } } } } ^ ^ } } } ",
"} ' } ' ' ' } } ' } ' ' ' | Q U H Z B V V V B Z H Y ' ' ' | ' } ^ ` ^ } } } } ^ ^ ",
"^ ' ' ' ' ' ' ' ' ' ` ' ' Q P c g p w w 4 8 e p g m P Q ' ' ' ' ^ } ^ ^ } ^ ^ } ^ ",
"' ' ' ' ' ' ' ' ' ' } Q U m k s e 9 1 < < < 1 4 r s k m P Q | ' } ^ ^ } ^ } ^ ^ } ",
"' ' ' ' ' ' ' ' ' ^ ( P n d 4 1 6 q 6 6 q q 6 q q 5 3 f b P Q ' ] ^ } ^ ^ } } ^ ^ ",
"' ' ' ' ' ' ' ' } ^ K b a 9 2 6 6 q q 6 q q q q 6 2 5 9 a b P Q } ^ ^ } ^ ^ ^ } ^ ",
"' } } ( ] } } ^ } E n d 7 2 q q q q q q q q q q q q q 1 9 d n Y } } ^ ^ } ^ ^ } ^ ",
"( ( ` ^ ( ( ^ ^ ( J d 4 5 6 q 5 5 q q q q q 6 6 5 7 q q 5 4 f K ^ ^ } ^ } ^ } ^ ^ ",
"' ^ ^ ^ ^ } ^ ^ P b i 1 6 6 7 : * * : 5 q 5 : = = ; 5 q 6 1 i n P ^ } } ^ ^ ^ ^ ^ ",
"( ` ` ^ ^ ` ^ ^ M g 0 6 6 q 5 % o o & , 4 , $ O O & 5 q 6 6 r g v ^ ^ ` ^ ^ ^ ^ ^ ",
"` ` ' ^ ^ ` ^ ^ x t 9 q q q 5 $ o   O $ & # O . X & 5 q 6 q q i b E } D ^ ^ ^ ^ ^ ",
"^ ( ^ ^ ^ ^ } ^ j 4 5 q q q 5 = + o o o O o . X + = 5 q 6 6 5 4 z ^ } ^ ^ ^ ^ ^ ^ ",
"^ ( ` ( ` ^ ] ! l < 1 q q q q 4 - + o .   o o + - 4 7 q q q 1 3 l ^ ] ^ ^ ^ ^ ^ ^ ",
"^ ` ^ ` ^ ^ ] ! l < 2 q q q q q , $ o       o # , q q q q q 1 < l ^ ] ^ ^ ^ ^ ^ ` ",
"^ W ` ^ ( ^ ` W l < 1 q q q q 5 > # X . . . X # : 5 q q q q 1 3 l Q } ` ` W ^ ^ D ",
"^ ^ W ^ ^ ^ } W h < 5 q q q 7 : $ O . X . X . O $ ; 7 q q q 5 4 l D ` E ` ( ^ W ^ ",
"W W ^ ^ ^ ^ } D x w 5 q q q 5 & O . o + @ + X X O & 5 q q q 5 w b D ^ ^ W ^ ^ ^ D ",
"^ ^ ^ W ^ ` ` D c y 0 q q q 4 $ X X @ - > - @ . X $ 5 q 6 6 r y v ! ! ^ ( ^ D ^ ^ ",
"^ ^ ^ W W W ^ ^ S h u 2 6 q 5 = # $ = 5 q 5 = $ # = 5 q 6 1 u z G E } ! ^ D ^ ^ ^ ",
"W W ^ ^ ^ ^ ` W E A a < 5 q q 5 4 4 5 5 q 5 5 4 4 5 q q 5 1 a F D D ^ ^ D ^ ^ ^ D ",
"^ W W ^ ^ W W ^ W U h i 5 2 q q q q q q q q q q q q q 2 5 i z T ^ ! ! ^ ^ ^ ^ D ^ ",
"^ W ^ W W ^ W W W D C l e 5 5 q q q q q q q q q q q 5 5 e h A E ^ ^ D D ^ D D D ^ ",
"W W W ^ ^ W W W ^ W E A l i < 2 7 q q q q q q q q 1 1 i l C R ! ^ D ^ ! D D ^ ` ^ ",
"W ^ W W W W ^ W W W ^ E v j p u 0 7 5 2 5 1 7 7 r e y h A E E D D ! ^ D ^ ^ E ! D ",
"^ W ^ W W ^ W ^ ^ W W W D P v j y w < < < 1 < 8 d j C K D D ^ ! ^ D ! D D D ^ W ^ ",
"W W ^ W W ^ W W W ^ ^ W D ` D S m h h k g k h h c A D D ^ ` D D D ! ` D ^ D ^ W D ",
"W ^ W W ^ W ^ W D ^ D D D D ^ D D D D D E D E D E E D D ! ^ ! ^ ! D D ! ^ D D ` D ",
"W W W W W W W W D D ^ D ! D D ^ ] ^ ^ ^ ` ` ` ^ ` ! ^ D ! D D D D ! ^ ! ! D D D ! ",
"W W W W W W W W ! D ^ D ^ D D ! W W D ^ D D W W D D ! ^ D D ! D D ! D D D D D D D ",
"W W W W W W W W D ! D D D D ! D D D D D D D W W D D D D ! D D ! ! D D ! D ^ D ^ D ",
"W W W W W W W W D ^ D D ^ D ^ D W W W W W W W W W W W W W W W W D D D D D ^ D ^ ! ",
"W W D W W W W D D D ! D D D D D W D W W W W W D W W W W D W W W ^ D ^ D D D D D D ",
"D D D D D D D D D D D D D D D D D D D D D D D D D D D D D D D D D D D D D D D D ! ",
"D D D D D D D D ^ D D D D D D D D D D D D D D D D D D D D D D D D D D D D D ^ D D "
};
