/* XPM */
static char *close_pressed_xpm[] = {
/* columns rows colors chars-per-pixel */
"41 44 84 1 ",
"  c #671219",
". c #6D141B",
"X c #73151D",
"o c #7B161E",
"O c #861922",
"+ c #8B1923",
"@ c #941B25",
"# c #9B1C26",
"$ c #9F1D28",
"% c #AA1F2A",
"& c #AB202B",
"* c #B3212D",
"= c #BB222F",
"- c #BF2330",
"; c #C32331",
": c #CC2533",
"> c #D52634",
", c #D52836",
"< c #D52D3A",
"1 c #D63441",
"2 c #D63946",
"3 c #D73D49",
"4 c #D7404C",
"5 c #D74450",
"6 c #D84552",
"7 c #D74B56",
"8 c #D84854",
"9 c #D74E59",
"0 c #D84E59",
"q c #D8535E",
"w c #D85660",
"e c #D85A64",
"r c #D95E68",
"t c #D9646D",
"y c #DA6771",
"u c #DA6F78",
"i c #DA727A",
"p c #DB7C84",
"a c #DC858D",
"s c #DC8E95",
"d c #DC9097",
"f c #DC959B",
"g c #DE989E",
"h c #DD9DA2",
"j c #DFA6AB",
"k c #DFA9AD",
"l c #DEACB1",
"z c #DEB0B4",
"x c #DFB7BB",
"c c #DEBBBE",
"v c #E0AFB4",
"b c #E0B1B5",
"n c #E0B5B9",
"m c #DFBDC1",
"M c #E1BCC0",
"N c #DFC0C3",
"B c #DFC1C5",
"V c #DFC4C7",
"C c #DFCFD1",
"Z c #DFDEDF",
"A c #E2C6C9",
"S c #E1C8CB",
"D c #E2CED0",
"F c #E2CFD2",
"G c #E2D0D2",
"H c #E2D0D3",
"J c #E1D9DA",
"K c #E1DADC",
"L c #E0DCDD",
"P c #E0DFE0",
"I c #E3DEE0",
"U c #E2DFE1",
"Y c #E1E0E1",
"T c #E1E2E3",
"R c #E3E2E3",
"E c #E4E2E3",
"W c #E3E3E4",
"Q c #E4E3E4",
"! c #E2E4E4",
"~ c #E3E5E5",
"^ c #E6E5E6",
"/ c #E7E6E7",
"( c #E4E7E8",
") c #E4E8E9",
/* pixels */
"^^^^^^^^^^^^^^^^/^^^^^^^^^^^^^^^^^^^^^///",
"^^^^^^^^/^^^^^^^^^^^^^^^^^^^^^^^^^^^!^///",
"^^^^^^^^^^^^^^^^^^^^^^^^/^^^^^^^^^^^(^^^^",
"^^^^^^^^^^^^^^^^^^^^^^^^^^^^^^/^^^^^//^^^",
"^^^^^^^^^^^^^^^^^^^^^^^^^^^^^^^^^^^^^^^^^",
"^^^^^^^^^^(/^^^^^^^/^^/^^^^^^^^^^^^^^^^^/",
"^^^^^^^^^^^^^^^^^/^^^/^^^^/^^^^Q^^^^^^^^^",
"^QQ^Q^^^Q^QQ^Q^QQQQ^QQQ^QQQ^Q^Q^^^QQ^Q^QE",
"Q^Q^^QQQQQ^QQQQ^QQQQ^Q^^QQQQ^QQQQQQQQ^Q^Q",
"^Q^QQQQQQQQQQQQQ^Q^QQQQ/QQQQQQQQQQQQ^Q^QQ",
"^QQ^^QQQQQQQQQ^^^)))))//(/^QQQQQQQQQQQ^^Q",
"Q^QQQQQQQQQQQQEHAMnbvbnMAHEQ^QQQQQQQQ^QQQ",
"QQQQQQQQQQQQQUHvayw768wyavHLQQQQQQQQQQQQQ",
"QQQWQQQQQQ^USvay02<>>><30yabDE^QQQQQQQQQQ",
"QQQQQQQQQQEDlu2,,,>,,>>>,,3ukDEQQQQQQQQQQ",
"EQQQQRRWWUDjt3,>>>>>>>>>>>>3tkSRQQQQQQQQQ",
"QQQQRRRR^Lku<>>>>>>,>,>,>,>>1ikZRRRRQQWQQ",
"QQQQERRRRSi2<>>>>>>>>,>>>>>>,2uARWR!QQR^Q",
"!ERR^RRRHjw>>,:=%%=:>:=&%;:>>,ejDWRRRQREW",
"RRRRRRRRxp4>>>:$Xo@;:;@oX#:>>,4pxR!RRRRRR",
"RRRRRR!Rje2>>,:#X.o@%+o.X#:>>>1rjE^RRRRRR",
"RRRRRR!Rg4<>>>>&OXXXoX.XO&>>>><7hL^RRRRRR",
"RRRRRR^Rf2,>>,,;*+X...X+*;>>>>>2fZTRRRRRR",
"RRRRRR!Ls<>>>,>>;@X. .X+;,>>>>>1sP!PRRRRR",
"RRRRRRRPs1,>,>>>=@X. .X+=:>>,>>1sL!RZRRRR",
"RRZRRRRRf3,,>,:*@o.XXX.o@=>,>><4fR^RRRPRR",
"LRRRPRTRj0<>>,:%o.XO+OXXo$:>>><wjZ!!ZRRRR",
"ERRZRPRZzu4>>>:#XX+*=*+XX@:,>>4izZRPRRLRL",
"RPPRPZRZBf9>>>>%+@&:>>%@@%:>>>9fBRRLZRZR!",
"RRRR!RRZZmt<>>>>;::>,>::;:>>,<ycZ!ZRRRRRR",
"PPRPPRPRRCfw<>>,>,>>,>,>>>>><efCPPZRZRZRZ",
"PRPRPZRZRLNs7<,>>>>,>>>,>><<0dVLRZRZRZRZR",
"PPRPRZPPRZZcsq<>,>>>>>>>>><edmZZRRZRRZRZR",
"RPRPZRRPRPRZNdt94<<>>><128tfcZRLZRZZZRZRZ",
"PRPPPPPPZPPPZCcfuq4<<12qufcCPPRZZRZRRZRZR",
"PPPRRPPPPZPPZZZVlgsaaashlVZZPPZZZZZZZRPRZ",
"RPRPZPPPZZZZLZRZZZZZZZZZZZZPPZZTZRZRZRRZZ",
"PPPPPPPPZZRZLRZZRRZPPPPRPZZPPPZZZZZPZZZRR",
"PPPPPPPPRZZRRZZZPPPPZZPPZZZZPPPZZZZZZZRZZ",
"PPPPPPPPZZZZZZZRPPPPPPPPZRPZPPPTZRZRPZZZZ",
"PPPPPPPPRZZZPPPPPPPPPPPPPPPPPPPPRZZRZRZZZ",
"PPPPPPPZZZZRPPPPPPPPPPPPPPZPPPPPZZZZZZZRZ",
"ZZZZZZZZZZZZZZZZZZZZZZZZZZZZZZZZZZZZZZZZZ",
"ZZZZZZZZZZZZZZZZZZZZZZZZZZZZZZZZZZZZZZZZZ"
};
