/* XPM */
static char *hide_pressed_xpm[] = {
/* columns rows colors chars-per-pixel */
"41 44 115 2 ",
"   c #664A07",
".  c #6E5008",
"X  c #6F5008",
"o  c #725308",
"O  c #7A5809",
"+  c #835F0A",
"@  c #85610A",
"#  c #89630A",
"$  c #8D660B",
"%  c #8E670B",
"&  c #99700B",
"*  c #AB7C0D",
"=  c #AC7C0D",
"-  c #AF7F0D",
";  c #B7850E",
":  c #B8860E",
">  c #BB880E",
",  c #C08B0E",
"<  c #C48E0E",
"1  c #C68F0F",
"2  c #CA920F",
"3  c #CC940F",
"4  c #DA9C0A",
"5  c #DA9D0C",
"6  c #D39910",
"7  c #D49910",
"8  c #DA9E10",
"9  c #DB9F10",
"0  c #DA9E11",
"q  c #DC9F10",
"w  c #DA9F14",
"e  c #DEA110",
"r  c #DAA014",
"t  c #DBA119",
"y  c #DAA21D",
"u  c #DBA421",
"i  c #DBA527",
"p  c #DBA628",
"a  c #DBA72A",
"s  c #DBA72C",
"d  c #DBA931",
"f  c #DCA931",
"g  c #DCAA32",
"h  c #DBAA37",
"j  c #DCAA35",
"k  c #DBAB38",
"l  c #DBAB3A",
"z  c #DBAC3C",
"x  c #DCAC3C",
"c  c #DBAE42",
"v  c #DDAF43",
"b  c #DDAF44",
"n  c #DCAF45",
"m  c #DCB045",
"M  c #DCB049",
"N  c #DDB24C",
"B  c #DDB24D",
"V  c #DCB353",
"C  c #DDB454",
"Z  c #DCB558",
"A  c #DEB658",
"S  c #DCB861",
"D  c #DEB962",
"F  c #DDBA69",
"G  c #DEBB69",
"H  c #DDBE77",
"J  c #DDBF7A",
"K  c #DFC07A",
"L  c #DFC17C",
"P  c #DDC283",
"I  c #DFC383",
"U  c #DEC386",
"Y  c #DEC487",
"T  c #DEC48B",
"R  c #DDC58D",
"E  c #DEC792",
"W  c #DFC997",
"Q  c #DFC998",
"!  c #E0CC9C",
"~  c #DECDA6",
"^  c #DFCEA9",
"/  c #DFD2B7",
"(  c #DFD3B9",
")  c #E1CDA0",
"_  c #E1CFA6",
"`  c #E1D0A9",
"'  c #E1D1AB",
"]  c #E2D2B0",
"[  c #E1D3B2",
"{  c #E2D5B9",
"}  c #E0D5BD",
"|  c #DFD6C2",
" . c #DFD9CE",
".. c #DFDEDF",
"X. c #E3D8C4",
"o. c #E2DBCB",
"O. c #E2DBCC",
"+. c #E3DCCD",
"@. c #E3DDD3",
"#. c #E1DDDA",
"$. c #E0DEDD",
"%. c #E0DEDE",
"&. c #E4E1DF",
"*. c #E0DFE0",
"=. c #E3E2E1",
"-. c #E3E2E3",
";. c #E4E3E3",
":. c #E0E0E4",
">. c #E0E0E5",
",. c #E3E2E4",
"<. c #E2E2E6",
"1. c #E4E3E4",
"2. c #E6E5E6",
"3. c #E4E5E9",
"4. c #E4E5EA",
/* pixels */
"2.2.2.2.2.2.2.2.2.2.2.2.2.2.2.2.2.2.2.2.2.2.2.2.2.2.2.2.2.2.2.2.2.2.2.2.2.2.2.2.2.",
"2.2.2.2.2.2.2.2.2.2.2.2.2.2.2.2.2.2.2.2.2.2.2.2.2.2.2.2.2.2.2.2.2.2.2.2.2.2.2.2.2.",
"2.2.2.2.2.2.2.2.2.2.2.2.2.2.2.2.2.2.2.2.2.2.2.2.2.2.2.2.2.2.2.2.2.2.2.2.2.2.2.2.2.",
"2.2.2.2.2.2.2.2.2.2.2.2.2.2.2.2.2.2.2.2.2.2.2.2.2.2.2.2.2.2.2.2.2.2.2.2.2.2.2.2.2.",
"2.2.2.2.2.2.2.2.2.2.2.2.2.2.2.2.2.2.2.2.2.2.2.2.2.2.2.2.2.2.2.2.2.2.2.2.2.2.2.2.2.",
"2.2.2.2.2.2.2.2.2.2.2.2.2.2.2.2.2.2.2.2.2.2.2.2.2.2.2.2.2.2.2.2.2.2.2.2.2.2.2.2.2.",
"2.2.2.2.2.2.2.2.2.2.2.2.2.2.2.2.2.2.2.2.2.2.2.2.2.2.2.2.2.2.2.2.2.2.2.2.2.2.2.2.2.",
"2.1.1.2.1.2.2.2.1.2.1.1.2.1.2.1.2.2.2.1.2.1.1.2.2.,.2.1.2.1.2.2.2.1.2.1.2.1.1.2.2.",
"1.2.1.2.1.1.1.2.1.1.2.1.1.2.-.2.,.2.1.1.-.2.1.;.-.2.2.1.1.2.-.2.1.1.1.2.1.2.1.2.2.",
"2.1.2.1.2.1.1.1.-.1.1.1.1.1.1.1.1.1.1.2.,.-.2.2.1.-.,.1.;.1.-.-.1.1.1.1.2.1.2.1.1.",
"2.1.1.2.2.1.1.1.1.1.;.1.;.1.,.2.2.4.4.4.4.4.4.4.2.,.,.,.1.1.1.1.1.1.1.1.1.1.2.2.2.",
"1.2.1.1.1.1.;.1.1.,.1.1.,.2.-.@.X.{ [ ` ` ` [ { X.@.-.2.2.1.1.1.1.1.1.1.1.2.1.1.1.",
"1.1.1.1.1.1.1.1.1.1.,.1.1.&.+._ K A b h f j v A L _ +.&.-.;.;.;.1.1.1.1.1.1.1.1.-.",
"1.1.;.,.1.1.1.1.1.1.2.&.+.` L A z p t 5 5 0 t p x A L ` +.-.2.1.1.1.1.1.1.1.1.1.1.",
"1.1.1.1.1.1.1.1.1.;.;.O.) D i r 0 0 0 0 0 0 0 0 0 r i D ) +.-.-.1.1.1.1.1.1.1.1.1.",
";.1.1.1.1.-.-.;.,.-.o.! C i 0 5 5 0 5 0 5 0 0 0 5 5 0 i C ! o.-.<.-.-.-.1.1.1.1.1.",
"2.-.-.-.2.-.-.-.-.&.~ S u 5 5 5 0 0 0 5 0 0 0 0 0 0 5 5 u D ~ @.-.-.-.-.<.<.1.1.1.",
"-.-.2.2.&.>.-.<.-.X.G p w 5 w w 0 0 0 0 0 5 5 0 0 5 0 5 w i F X.&.-.-.-.1.1.1.1.1.",
"-.-.-.-.<.-.&.-.o.W m 5 5 w w 5 0 0 0 0 0 0 0 0 0 5 0 0 w 5 b Q +.-.<.-.-.1.1.-.1.",
"-.-.-.-.2.&.-.-.' K d 5 0 5 5 e 5 0 0 5 0 0 5 0 0 0 0 0 5 5 d J / -.-.-.-.-.-.-.-.",
"-.-.-.-.-.-.>.-.Q B u e e r e e e e e e e e e e e 0 e 5 0 5 i B ! -.-.-.-.-.-.-.-.",
"-.-.-.-.-.-.<.<.E d e 0 5 6 1 1 < < < < < < < < < 1 3 7 0 5 t d R -.4.-.-.-.-.-.-.",
"-.-.-.-.,.-.,.&.Y u r 0 0 > & # + + + + + + + + @ # & , w 5 0 i P -.-.:.-.-.-.-.-.",
"-.-.-.-.-.-.,.-.P y 5 0 e ; @ X                   X @ : 0 0 5 y P :.-.&.-.-.-.-.-.",
"-.-.-.-.-.-.:...U y 0 e 0 > % O o o o o o o o o o O % > 0 q 5 u P &.,.-.-.-.-.:.:.",
"-.-.-.-.-.-.-.&.R a w 5 0 2 ; = * * * * * * * * = ; : 3 5 r r s T :.,.,.-.>.-.-.-.",
"-.-.:...-.-.-...Q c y 5 5 0 0 0 e 5 0 0 5 r 5 r 7 0 0 r 0 0 y v W &.:.-.-.&.:.-.-.",
"..-.-.-...:.-.:.^ S s w 0 0 5 e 5 w 0 e 5 e 0 0 5 e 0 5 5 5 i D ^ ..-.-.:.-.-...:.",
"-.-.-.-.-.-.....( R l 5 5 9 0 0 e r 5 r 0 0 5 0 0 5 0 5 0 5 z R / -.......-.-.-.-.",
"..-...-.-.....-.&.( Z e e 5 9 0 0 5 0 5 0 0 0 0 0 0 0 0 r r A ( ..-.:.-.-.-...&.-.",
"-...-...-...-...-. .R M t 5 6 r 0 5 0 5 0 5 0 0 0 0 0 4 t M R  .:.:...-...-.-.-...",
"..-...-...-...-.:...( U l w r 5 0 r 5 r 0 0 5 0 0 5 w w l Y | &.-...-...-.......-.",
"-...-...-...-.-.&...../ P m t 9 4 5 e 0 0 5 0 5 5 5 t B P } &...-.&.........-...:.",
"..-...>...-.......-.&.&.( R V k a t r 0 5 0 0 y a k V R ( ..-.-...:...:.-...&.-...",
"&...-...:...=.......:..... ./ R S m a r t y a n S R /  .........:.&...-...-...-.-.",
"..-...-.:.........:.......&...| ^ E P K K J P E ~ | ..........:.........-...-.....",
"-.-.-...-...:.....-.......................................&...&...&.-.....:.-...-.",
"............&.........-.......&...-...<...>.........-.....:.............-.....-...",
"......-.-.........-.............:...........&.:.:...:.....:...:...................",
"..-.........-.........-.....-...&.....:...&.................&...-.....-.......-...",
":.....-.............&.......&.....:.....:.......:.&.....&...........&...:.....:.&.",
"..........:.&.....-...:.:.....:.....&.......:.&.......:.....:.&.....:.....&.......",
"..................................................................................",
".................................................................................."
};
