/* XPM */
static char *hide_prelight_xpm[] = {
/* columns rows colors chars-per-pixel */
"41 44 84 1 ",
"  c #755C19",
". c #82661C",
"X c #8C6E1E",
"o c #967620",
"O c #9B7A21",
"+ c #A38023",
"@ c #B08B26",
"# c #C59B2A",
"$ c #C99E2B",
"% c #D3A62D",
"& c #D7A92E",
"* c #DCAE2F",
"= c #EBB52C",
"- c #EFB82D",
"; c #F1B827",
": c #F4BD2D",
"> c #E2B231",
", c #E9B633",
"< c #EBB833",
"1 c #E7B63C",
"2 c #EEBC3A",
"3 c #F3BE33",
"4 c #F2BF3A",
"5 c #F7C02D",
"6 c #F6C134",
"7 c #FAC536",
"8 c #FEC837",
"9 c #E6B744",
"0 c #E6B846",
"q c #E4B94D",
"w c #EBBE4B",
"e c #E7BC53",
"r c #E5BD5B",
"t c #E3BE64",
"y c #EFC147",
"u c #ECC04E",
"i c #F1C041",
"p c #EAC053",
"a c #E6C05F",
"s c #E6C064",
"d c #E8C262",
"f c #E5C26B",
"g c #E3C272",
"h c #E3C57D",
"j c #E3C784",
"k c #E5C881",
"l c #E3C98B",
"z c #E2CA92",
"x c #E2CE9D",
"c c #DFD4BD",
"v c #E2CFA3",
"b c #E0CFA9",
"n c #E5D4AC",
"m c #E3D4B1",
"M c #E2D6B9",
"N c #E1D5BC",
"B c #DFD6C1",
"V c #DFDEDF",
"C c #E0D6C0",
"Z c #E4D9C3",
"A c #E2DACB",
"S c #E4DBC8",
"D c #E2DBCC",
"F c #E2DBCD",
"G c #E3DDCF",
"H c #E2DCD1",
"J c #E1DCD2",
"K c #E4DED3",
"L c #E0DDD8",
"P c #E2DFDB",
"I c #E4DFD8",
"U c #E1DEDC",
"Y c #E4E1DF",
"T c #E0DFE0",
"R c #E3E2E3",
"E c #E4E2E1",
"W c #E1E1E4",
"Q c #E3E3E5",
"! c #E3E3E7",
"~ c #E4E3E4",
"^ c #E4E3E5",
"/ c #E6E5E6",
"( c #E5E5E9",
") c #E5E6EB",
/* pixels */
"/////////////////////////////////////////",
"////////////////(////////////////////////",
"/////////////////////////////////////////",
"/////////////////////////////////////////",
"/////////////////////////////////////////",
"/////////////////////////////////////////",
"/////////////////////////////////////////",
"/~~/~///~/~/~/~///~/~/~//~/~~/////E/R//R/",
"~~/~~/~/~/~//~/~////~///~/~/~/~//E//Q////",
"//~//~/~/~/~~/~/~////Q///~/~/~/~Q/~//~R//",
"~//~//~//~~/~//((())(((((/~//~~/~/R//R//~",
"/~/~~~//~/~~/~EKZMmnnmnMZKE///~~/E//Q//R/",
"R~~~~~~~~~Q~ERGvhr91110rhvFYQE~~~/RRR/ERR",
"~~~~~~~~~~/EAnkdw2:;;--2wdknFR~~~~R/~~Q/R",
"~~~~~~~~~REGxf,:7767777773,svF~~QR~~EQRR/",
"~~~~~~~~/RAxd2:6677777777:34avFE/~~RQ//RR",
"~QQ~QEQ~/Yvs2:777777777777732fvYQR/E~~EQ/",
"QE~~~~~EYAf<67777777777777773<gZRQRQ~~R/R",
"E~QEQEQRFxp567777777777777776:pvFRQQR~R~R",
"Q~QQE~QRmgi6677777777777777776igmRQRRRRRR",
"RRRRRRQRxq376788888888788887777exRQRRRRRR",
"RRQERR~Rl13777,>>>>>>>>>>>,377:1lRQRRRRRR",
"RRRRRRQEl,:77*@OoooooooooO@*77:>lYQRRRRRR",
"RRRRQQQEk=577%o.         .O%77:=lRQRRRRRR",
"RRRRRTQRl,:77&+X.........X+&87:=lYQVQRRRR",
"TRRTRRQTl<:772%$#########$%<773<lRQRRRRRR",
"RRRRRVQTz93767777777777777777739zRQTRRTTR",
"RTTRRRQYvti6777878787878787776itbTRRVRRRT",
"TRRRVTQRClw:77777777677777777:ulBRRRRRRTR",
"RRTTRRRTPMd-37777777777777776-dNVRRTTTRRR",
"TRRRRTTRTJle25777777777777753elJQTTRRTTRT",
"TTTTTRTTVVclw377777777777763qlcUTRTTRTRTT",
"RRTTTRTTTTVcje-;677777776:-elcVYVQVTRTTTR",
"TTTRTRTRTRRVclryy6655:36iyrlcPYVUTTRTTRTT",
"TTTRTTRTTTRRRBMlt0,===,0tlcJVVTRTTTRTRTRT",
"RRTTRTTTRTTTQTVBvzjhhhjznBVVQRTTRRTTTRTTR",
"TTRTTRTRTRTTVQVQVVUVPVTTVRQVTQRTTTRTTRRTT",
"TTTTTTTTTTTTVVTVQTVQQQTTVVTTVVTTTTTTTVTTT",
"TTTTTTTTTTTTTTTTTTTTVVTTVTTTTTTTTTTTTTVTV",
"TTTTTTTTTTTTTTTTTTTTVVTTVVTTTTTTTTTTTTTTT",
"TTTTTTTTTTTTTTTTTTTTTTTTTTTTTTTTTTTTTTTTT",
"TTTVTTTTTTTTTTTTTTTTTVTTTTTVTTTTTTVTTTTTT",
"VVVVVVVVTVVVVVVVVVVVVVVVVVVVVVVVVVVVVVVVV",
"VVVVVVVVTVVVVVVVVVVVVVVVVVVVVVVVVVVVVVVVV"
};
