/* XPM */
static char *hide_active_xpm[] = {
/* columns rows colors chars-per-pixel */
"41 44 73 1 ",
"  c #EBB52C",
". c #EFB82D",
"X c #F1B827",
"o c #F4BD2D",
"O c #E7B537",
"+ c #EAB533",
"@ c #EBB835",
"# c #E7B63C",
"$ c #E8B73E",
"% c #EEBC3A",
"& c #F2BD33",
"* c #F2BF3A",
"= c #F7C02D",
"- c #F6C134",
"; c #FAC536",
": c #E6B744",
"> c #E6B846",
", c #E4B94D",
"< c #EBBE4B",
"1 c #E7BC53",
"2 c #EABF53",
"3 c #E5BD5B",
"4 c #E3BE64",
"5 c #EFC147",
"6 c #F1C041",
"7 c #E6C05F",
"8 c #E6C064",
"9 c #E8C262",
"0 c #E5C26B",
"q c #E3C272",
"w c #E3C57D",
"e c #E3C784",
"r c #E5C881",
"t c #E3C98B",
"y c #E2CA92",
"u c #E2CE9D",
"i c #DFD4BD",
"p c #E2CFA3",
"a c #E0CFA9",
"s c #E5D4AC",
"d c #E1D2B1",
"f c #E5D5B1",
"g c #E1D5B8",
"h c #E1D4B9",
"j c #E1D6BD",
"k c #DFDEDF",
"l c #E0D6C1",
"z c #E3D9C3",
"x c #E4D9C3",
"c c #E4DBC7",
"v c #E2DACB",
"b c #E4DBC8",
"n c #E2DBCC",
"m c #E3DCCE",
"M c #E3DDCF",
"N c #E1DCD2",
"B c #E4DED3",
"V c #E1DDD9",
"C c #E4DFD8",
"Z c #E1DFDE",
"A c #E1DFDF",
"S c #E4E1DF",
"D c #E0DFE0",
"F c #E3E2E3",
"G c #E4E2E1",
"H c #E0E0E4",
"J c #E3E3E5",
"K c #E4E3E4",
"L c #E5E4E5",
"P c #E4E4E6",
"I c #E6E5E6",
"U c #E5E5E9",
"Y c #E5E6EB",
/* pixels */
"IIIIIIIIIIIIIIIIIIUIIIIIIIIIIIIIIIIIIIIII",
"IIIIIIIIIIIIIIIIIIIIIIIIIIIIIIIIIIIIIIIII",
"IIIIIIIIIIIIIIIIIIIIIIIIIIIIIIIIIIIIIIIII",
"IIIIIIIIIIIIIIIIIIIIIIIIIIIIIIIIIIIIIIIII",
"IIIIIIIIIIIIIIIIIIIIIIIIIIIIIIIIIIIIIIIII",
"IIIIIIIIIIIIIIIIIIIIIIIIIIIIIIIIIIIIIIIII",
"IIIIIIIIIIIIIIIIIIIIIIIIIIIIIIIIIIIIIIIII",
"IKKIKIIIKIKIKIKIIIIKIKKIIKKIKIIIIIFIKIJII",
"KKIKKIKIKIKIIKIKIJIIIJIKKIKIKIKIKIKIKIKII",
"IIKIIKIKIKIKKIKIIIIUJIIIIKIKIKIKIIIKIKIKI",
"KIIKIIKIIKKIIKIUUUUYUUUUUIIIKIKIIGIIKIGIG",
"IKIKKKIIKIKKIKGBzgffssfgzBFKIKIKJIFJIJIKI",
"FKKKKKKKKKJKGFMpw3:##$:3wpMGJGKKKKIIIKKKJ",
"KKKKKKKKKKIGvsr9<%XXXX.%<9rsnFIKKKFGFKKKF",
"KKKKKKKKKFGMu0+o;;;;;;;;;o@8pMFGJFIGJGKKK",
"KKKKKKKKIFvu9%o-;;;;;;;;;-&%3pnGIFJFJIKKK",
"JIFJKKKKISp4%;;;;;;;;;;;;6;=*0pCIJFKKKJGK",
"FGKIKKKGGc0@&;;;;;;;;;;;;;;;-%0vFFKKKKJIK",
"GJJGJKFFcp<X;;;;;;;;;;;;;;;;;X2pnFJJFKKGJ",
"FFFFFFJFsq<;;;;;;;;;;;;;;;;;;;5qdFJFFFFFF",
"FFFFFFJFu,*;;;;;;;;;;;;;;;;;;;*,uFJFFFFFF",
"FFFFFFJFt#o;;;;;;;;;;;;;;;;;;;&OtFJFFFFFF",
"FFFFFFIGt+o;;;;;;;;;;;;;;;;;;;o tSJFFFFFF",
"FFFFFFJZt.o;;;;;;;;;;;;;;;;;;;o tFJFFFFFF",
"FFFFFDJZt o;;;;;;;;;;;;;;;;;;;&+tSJJFFFFF",
"FFFFFFJFtOo;;;;;;;;;;;;;;;;;;;o+tFDJFDFFF",
"FFDDFDDJy:&;;;;;;;;;;;;;;;;;;;*:yFJDFFDDF",
"DFFFFJJZp3<;;;;;;;;;;;;;;;;;;;64aDJFDFFFD",
"FFFDDDFFlt<o;;;;;;;;;;;;;;;;;o<tiFFFFFFDF",
"DDFFFFFDkg9.;;;;;;;;;;;;;;;;=.9jkFFDDDFFF",
"FDDFFDDFJNt1&;;;;;;;;;;;;;;o&1tNDJDFFDDFD",
"FDFDDFDDkCit:&;;;;;;;;;;;;-&,tiZDFDDFDFDD",
"DDDFDFDDDFkje1.X;;;;;;;;;o.3tikZFDDFFDDDF",
"DFDDDFDFDDFkit3<<&=oo-&*-<3tiCFkDFDDDDFDD",
"FDFDDDFDFFDDkngt4:@ ..+:4thkkDDFFDFDDFDFD",
"DDFDFDDDDDDFJDClpyewwwetpikFDFDDDDFDDFDDF",
"DDDDFDDFFDDJkDJkkkFkZkZZkkDJDDJDDDFDFDFDD",
"DDFDDDDDDDDDDDkZJDDDkJDDDZDDDDDDDDDDDDDDD",
"DDDDDDDDkDDDDDDDDDDDDDDDkDDDDDDDDDDDDDkDk",
"DDDDDDDDDDDDDDDDDDDDDDDDDDDDDDDDDDDDDDDDD",
"DDDDDDDDDDDDDDDDDDDDDDDDDDDDDDDDDDDDDDDDD",
"DDDkDDDDDDDDkDDDDDDkDDDDDDDDkDDDDDDkDDDDD",
"kkkkkkkkkkkkkkkkkkkkkkkkkkkkkkkkkkkkkkkkk",
"kkkkkkkkkkkkkkkkkkkkkkkkkkkkkkkkkkkkkkkkk"
};
