/* XPM */
static char *maximize_pressed_xpm[] = {
/* columns rows colors chars-per-pixel */
"41 44 85 1 ",
"  c #095E0F",
". c #09610F",
"X c #0A6510",
"o c #0A6A10",
"O c #0B7612",
"+ c #0C7C13",
"@ c #0D8214",
"# c #0D8915",
"$ c #0F9517",
"% c #0F9718",
"& c #0F9C18",
"* c #109D18",
"= c #10A419",
"- c #11AD1B",
"; c #12B51C",
": c #12BC1D",
"> c #0EC019",
", c #13C11E",
"< c #16C121",
"1 c #1AC225",
"2 c #22C32C",
"3 c #27C431",
"4 c #2AC534",
"5 c #34C63D",
"6 c #3BC744",
"7 c #3FC847",
"8 c #44C94D",
"9 c #4BC953",
"0 c #50CA57",
"q c #56CB5D",
"w c #5BCC62",
"e c #63CD6A",
"r c #6BCF71",
"t c #71D077",
"y c #73D078",
"u c #79D07F",
"i c #7DD182",
"p c #85D28A",
"a c #88D38D",
"s c #8DD391",
"d c #92D496",
"f c #98D69C",
"g c #9ED7A2",
"h c #9ED8A2",
"j c #A1D7A4",
"k c #A2D8A5",
"l c #A7D6AA",
"z c #A8D7AB",
"x c #A7D9AA",
"c c #ABD9AE",
"v c #B2DBB4",
"b c #B4DAB6",
"n c #B7D9B9",
"m c #B9DCBB",
"M c #BADABC",
"N c #BCDBBE",
"B c #BDDBBF",
"V c #BEDBC0",
"C c #C2DBC3",
"Z c #C3DBC4",
"A c #C4DEC6",
"S c #C7DDC8",
"D c #C6DEC8",
"F c #CCDFCD",
"G c #CEDDCF",
"H c #D1DDD2",
"J c #DBDFDB",
"K c #DCDFDC",
"L c #DFDEDF",
"P c #D0E0D1",
"I c #D3E0D4",
"U c #D7E0D8",
"Y c #D8E0D8",
"T c #DFE2DF",
"R c #E0DFE0",
"E c #E0E1E0",
"W c #E0E2E1",
"Q c #E3E2E3",
"! c #E3E3E3",
"~ c #E4E3E4",
"^ c #E6E2E6",
"/ c #E7E3E6",
"( c #E6E5E6",
") c #E7E4E7",
"_ c #EAE4EA",
/* pixels */
"(((((((((((((((((((((((((((((((((((((((((",
"(((((((((((((((((((((((((((((((((((((((((",
"(((((((((((((((((((((((((((((((((((((((((",
"(((((((((((((((((((((((((((((((((((((((((",
"(((((((((((((((((((((((((((((((((((((((((",
"((((((((((((((((((((((((((((((((((((_((((",
"((((((((((((((((((((((((((((((((((((((^((",
"(~~(~(((~(~(~~((((((~(~(~(~(~(~(!(!(((~((",
"~(~(~~~(~~~~~~~~(~(~~~~~!~~(~~~~~~~)~((~~",
"(~(~(~~~~~~~~~~~~~~~(~((~~~~~~~~~~~~(~~(~",
"(~~(~~~~~~~~!!!((_)_____~~~~~~~~~~~~~~(((",
"~(~~~~~~~~~~!(!IAmbcccbmAI~~~~~~~~~~~(~~~",
"~~~~~~~~~~!~!THxiw86568wixF!~!!!~~~~~~~~~",
"~~!~~~~~~~~!Fciw731,,,138wicH(~~~~~~~~~~~",
"~~~~~~!~~!!Fke3<<,,<,,,,,<3ekF!~~~~~~~~~~",
"!~~~~!!!~!Fgq4<,>,,,,,,,>,<4qgF!~R!~~~~~~",
"~~~~~~~R(Uke2:,,,,,,,,<,,,,>2ekU~!RQQ~~~~",
"~~~~~~~~!Ar3<,,,,<,,,,,,<,,,<3rD~Q~~~~~~~",
"R~~~~R~RFj8,,,,,,:;&%%%&=;:,,,9kGQ~QQ~Q~Q",
"~~~~~~~~bt5,,,<,:;&OXXXo@&:,,,5ynR~~QQQQQ",
"RR~~R~~~g92,,,,:::;$O   X$,,,,20g~!~~R~~Q",
"~~R~~~^Rd51,,,,-=;:;$OX..#:,,>15d~~R~~~RQ",
"QQ~~!K!!a3,,,,:$@=::;&+. #:,,,<3aR)R~RR~Q",
"RQQQ!!!Tp2,,,,:#o#=;:;&OX#:,,,,2a)R~R~~~Q",
"~R~~QQ~Rp2,,,,:#..@=::;*O#:,,,,2pR~R~R~~R",
"R~RQRQ~Ra51,,,:#..o#*::;*=,,,,<5sR~~R~R~R",
"~R~QR~~Rf81,,,:#....#=;:;::,,,28fRR~~R~RR",
"R~RQ~R~Rce4,,,,*O. ..+=;:,,,,,4eb~RRR~R~R",
"~R~RRRRRCs7:,,:-$@+@@#=:,,,,,,7sSRR~R~R~R",
"R~R~R~R~KMq1,,,,::;::::,,,,,,1wMK~RRRR~~)",
"~R~R~RRR!Hs91>,,,<,,<,,<,,,>19sHRRRR~RRRR",
"RRRRRRR~~YNp71<,,,,,,,,,:,:17aVKR~R~RR~RR",
"RR~RRR~RR~KVp91:;;:,,,:,,,19pNKRR!RRRRRRR",
"RRRR~RRRRRRKVsq6321:,,<236qsCKRRRR!R!R!R!",
"RR~RRRRRRRRRKGbse8421248esMFKRRRRRRRRRR!R",
"~~RRRRRRRRRRRRKZzdppiipdzZJRRRRRRRRR!RRRR",
"RR~RRRRRRRRRRRRRRLLRLLLLKRRRRRRRRRRRRR!RR",
"RRRRRRRRRRRRRRRRRRRRRRRRRRRRRRRRRRRRRRRRR",
"RRRRRRRRRRRRRRRRRRRRRRRRRRRRRRRRRRRRRRRRR",
"RRRRRRRRRRRRRRRRRRRRRRRRRRRRRRRRRRRRRRRRR",
"RRRRRRRRRRRRRRRRRRRRRRRRRRRRRRRRRRRRRRRRR",
"RRRRRRRRRRRRRRRRRRRRRRRRRRRRLRRRLRRRRRRRR",
"LRRLLLRRRRLLRLLLRLLRLRLLLRRLRLRRRLRRRRRJR",
"LLLRLLLLKLLLLRLLLRLLLLLRLLLRLLLLLLLLRKRRR"
};
