/* XPM */
static char *maximize_active_xpm[] = {
/* columns rows colors chars-per-pixel */
"41 44 79 1 ",
"  c #2ED73B",
". c #2CDD3B",
"X c #31D63E",
"o c #2EE33E",
"O c #30E23F",
"+ c #36D642",
"@ c #3BD546",
"# c #38D844",
"$ c #3FD64B",
"% c #3CDD49",
"& c #33E343",
"* c #38E147",
"= c #36E946",
"- c #38E947",
"; c #3AE349",
": c #39EA49",
"> c #41D64D",
", c #48D553",
"< c #4ADE56",
"1 c #4FD459",
"2 c #4DDB58",
"3 c #54D65D",
"4 c #52DC5D",
"5 c #44E051",
"6 c #56D761",
"7 c #5BD664",
"8 c #56DA60",
"9 c #66D46D",
"0 c #63D96C",
"q c #6AD772",
"w c #6BD873",
"e c #74D57A",
"r c #71D878",
"t c #7BD481",
"y c #7FD986",
"u c #83D989",
"i c #8ED793",
"p c #8CD991",
"a c #90D795",
"s c #97D99C",
"d c #98D99C",
"f c #9DD9A1",
"g c #A2DAA6",
"h c #A6D7A9",
"j c #A6D9A9",
"k c #AADAAD",
"l c #AFDFB3",
"z c #B2DCB5",
"x c #BBDCBD",
"c c #BEDBC0",
"v c #C2DCC4",
"b c #CBDECC",
"n c #CDDFCE",
"m c #CEDECF",
"M c #D2DED3",
"N c #D2DFD3",
"B c #D9DED9",
"V c #DBDFDC",
"C c #DCDFDC",
"Z c #DFDEDF",
"A c #C9E0CA",
"S c #CEE0CF",
"D c #D0E0D1",
"F c #D3E0D4",
"G c #D8E1D9",
"H c #DFE2DF",
"J c #E0DFE0",
"K c #E1DFE1",
"L c #DFE2E0",
"P c #E0E0E0",
"I c #E0E2E0",
"U c #E2E3E2",
"Y c #E3E2E3",
"T c #E4E3E4",
"R c #E7E2E6",
"E c #E6E5E6",
"W c #E7E4E7",
"Q c #E9E5E8",
"! c #EBE4EA",
/* pixels */
"EEEEEEEEEEEEEEEEEEEEEEEEEEEEEEEEEEEEEEEEE",
"EEEEEEEEEEEEEEEEEEEEEEEEEEEEEEEEEEEEEEEEE",
"EEEEEEEEEEEEEEEEEEEEEEEEEEEEEEEEEEEEEEEEE",
"EEEEEEEEEEEEEEEEEEEEEEEEEEEEEEEEEEEEEEEEE",
"EEEEEEEEEEEEEEEEEEEEEEEEEEEEEEEEEEEEEEEEE",
"EEEEEEEEEEEEEEEEEEEEEEEEEEEEEEEEEEEEEEEEE",
"EEEEEEEEEEEEEEEEEEEEEEEEEEEEEEEEEEEEEEEEE",
"ETTETEEEETTETETEEETEETTEETETTEEEEETTETETE",
"TTETTTEETETEETETEEEEETTETETETTTETETTTETET",
"EETEEEETETETTETEEEEETEEEETETEETEETEETEETT",
"TEETETTEETTEETEQEQQQQQQQQEEETEETTEETEETEQ",
"ETETTTEETETTEEYFvxzlzzlxvFTEETETETTWTTETT",
"YTTTTTTTTTTTYHDjt7,>@$,7tjDHTYYTTTTTTTTTT",
"TTTTTTTTTTEHnku02%...o.%20uknYTTTTTTTTTTT",
"TTTTTTTTTTYSgq#O:::::::::&+qgSTTTTTTTTTTT",
"TTTTTTTTTYbg0%&&::::::::=&&%0gbYQTTTTTTTT",
"TTTTTTTTEGjq%o:::::::::::::&%qgGTTTTTTTTT",
"TTTTTTTTYAr#*=:::::::::::::=&#rbTTTTTTTTT",
"YTTTTTTYSg4.=:::::::::::::::=.4gmJTTTTJTT",
"YYYYYYTYzr<==:::::::::::::::::<ezYTTTTTTJ",
"YYYYTYTTf3*=::::::::::::::::=:;3fYTTYYYYT",
"YYYYTJRTp@&:::::::::::::::::::&@aYTTYYYYT",
"YYYYTTTYp+&=::::::::::::::::::& pYTYYYYYT",
"YYYYTJTLp o::::::::::::::::::-& pJTYYYYYK",
"JTTKTTJTp o:::::::::::::::::::& iYYYJYYYJ",
"JJTKJTTJp#&-::::::::::::::::::@+aJYYYYYTJ",
"TTJTJTJTs,%-::::::::::::::::::*,dTTYYYYJT",
"JTTJTJTJh05=:::=::::::::::-:==50kJJYYJJYJ",
"KTKTJKTKvi2o=:::::::::::::::=o4ivTYJJTTJT",
"KKTKKTJTHx0 =:::::::::::::::= 0xZJJTKTJTJ",
"KTTJTJTJYMi3*o::::::::::::=&%3aDJTJTJTKTJ",
"KJKJJTKKJVxp2&==:::::::::==@<pxHTKJKKJJTJ",
"KJJKJJJJJJVxp3 o==-::::-=o.7icVJYJJTTJJJK",
"TJTKTYTJJTTZxi72<%*&o&*-5<7ixVYJJJJJJJKTK",
"JJJJJJJJJTJJBMxa9,+X  +,qaxDZJJJJJYJJJJJT",
"JTKKJJJJKKJKPYVvhsuuyyuihvVYJJYJTJJTYJJJJ",
"KKJJJJYPJJYJJJTZKKZJVJZZZZYJJJJJJJJJJJJJJ",
"KJYJYJZPJJJJJJJPJJJYJJZJZYJJJJJJJYJJYJYJJ",
"YYJZJZJZZYJJJJJJJJJJJJJJPJJJYJZZJZHZJZJJY",
"JJJJJJYZJPZYZJJYJJJJJJJJJJYJJZJYJYZJJYJZJ",
"JJJJJJJJJJPPPPZJJJJJJJJJJJJJJJJJJJZJZPPZJ",
"JJJJJJJJPZPPPPJJJJJJJJJJJJJJJJJJJJJPPJZPY",
"ZZZZZZZZZZZZZZZJZZZZZZZZZZZZZZZZZZZZZZZZZ",
"ZZZZZZZZPZZZZZZZZZZZZZZZZZZZZZZZZZZZZZZZZ"
};
