/* XPM */
static char *maximize_prelight_xpm[] = {
/* columns rows colors chars-per-pixel */
"41 44 99 2 ",
"   c #1C7424",
".  c #1E7C26",
"X  c #1F8128",
"o  c #208429",
"O  c #238E2C",
"+  c #24932E",
"@  c #25982F",
"#  c #269B30",
"$  c #27A132",
"%  c #28A533",
"&  c #2AAC36",
"*  c #2CB639",
"=  c #2EBC3B",
"-  c #30C63E",
";  c #31C93F",
":  c #2ED73B",
">  c #2CDD3B",
",  c #31D63E",
"<  c #30DB3D",
"1  c #2EE33E",
"2  c #30E23F",
"3  c #32CE40",
"4  c #35D542",
"5  c #3BD546",
"6  c #36DD45",
"7  c #38D844",
"8  c #3FD64B",
"9  c #3CDD49",
"0  c #34E344",
"q  c #38E447",
"w  c #36E946",
"e  c #38E947",
"r  c #39E548",
"t  c #39EB49",
"y  c #41D64D",
"u  c #46D551",
"i  c #48D553",
"p  c #4ADE56",
"a  c #4FD459",
"s  c #4DDB58",
"d  c #54D65D",
"f  c #52DC5D",
"g  c #44E051",
"h  c #56D761",
"j  c #5BD664",
"k  c #56DA60",
"l  c #66D46D",
"z  c #68D56F",
"x  c #63D96C",
"c  c #6AD772",
"v  c #6BD873",
"b  c #74D57A",
"n  c #71D878",
"m  c #7BD481",
"M  c #7FD986",
"N  c #83D989",
"B  c #8ED793",
"V  c #8CD991",
"C  c #90D795",
"Z  c #91D896",
"A  c #97D99C",
"S  c #98D99C",
"D  c #9DD9A1",
"F  c #A2DAA6",
"G  c #A6D7A9",
"H  c #A6D9A9",
"J  c #AADAAD",
"K  c #AFDFB3",
"L  c #B2DCB5",
"P  c #B8DEBB",
"I  c #BBDBBD",
"U  c #BBDDBE",
"Y  c #BCDCBE",
"T  c #BEDBC0",
"R  c #C2DBC3",
"E  c #C3DEC5",
"W  c #CBDECC",
"Q  c #CDDFCE",
"!  c #D2DFD3",
"~  c #DBDFDC",
"^  c #DFDEDF",
"/  c #C9E0CA",
"(  c #CEE0CF",
")  c #CEE0D0",
"_  c #D0E0D1",
"`  c #D3E0D4",
"'  c #D8E1D9",
"]  c #DBE0DC",
"[  c #DFE2DF",
"{  c #E0DFE0",
"}  c #DFE2E0",
"|  c #E2E3E2",
" . c #E3E2E3",
".. c #E4E3E4",
"X. c #E7E2E6",
"o. c #E6E5E6",
"O. c #E7E4E7",
"+. c #E9E5E8",
"@. c #EBE4EA",
/* pixels */
"o.o.o.o.o.o.o.o.o.o.o.o.o.o.o.o.o.o.o.o.o.o.o.o.o.o.o.o.o.o.o.o.o.o.o.o.o.o.o.o.o.",
"o.o.o.o.o.o.o.o.o.o.o.o.o.o.o.o.o.o.o.o.o.o.o.o.o.o.o.o.o.o.o.o.o.o.o.o.o.o.o.o.o.",
"o.o.o.o.o.o.o.o.o.o.o.o.o.o.o.o.o.o.o.o.o.o.o.o.o.o.o.o.o.o.o.o.o.o.o.o.o.o.o.o.O.",
"o.o.o.o.o.o.o.o.o.o.o.o.o.o.o.o.o.o.o.o.o.o.o.o.o.o.o.o.o.o.o.o.o.o.o.o.o.o.o.o.o.",
"o.o.o.o.o.o.o.o.o.o.o.o.o.o.o.o.o.o.o.o.o.o.o.o.o.o.o.o.o.o.o.o.o.o.o.o...o.o.o.o.",
"o.o.o.o.o.o.o.o.o.o.o.o.o.o.o.o.o.o.o.o.o.o.o.o.o.o.o.o.o.o.o.o.o.o.o.o.+.o.o.o.o.",
"o.o.o.o.o.o.o.o.o.o.o.o.o...o.o.o.o.o.o.o.o.o.o.o.o.o.o.o.o.o.o.o.o.o.o.o.o.o.o.o.",
"o.....o...o.o.o...o...o...o.o.o.o.o.o...o...o...o.....o...o.o.o...o...o...o...o.o.",
"....o.......o.o...o...o.o...o...o.o.o.o...o.o.o...o.o...o...o...o...o...o...o.....",
"o.o...o.o.o.o...o...o.....o...o.o.o.o.o.o...o.o...o...o...o...o...o...o...o...o...",
"..o.o...o.....o.o.....o.o...o.o.+.+.+.+.+.+.+.+.+.+.o...o.o.o...o.....o.o...o.o.o.",
"o...o.......o.o...o.....o.o. .` E P L K L L L P E _  .o.......o...o...o...o.......",
" ....................... .[ _ H m j u y 5 8 i j m H ) } ..........................",
"....................o.[ Q J N x s 9 > > > 1 > 9 s x N J Q  .......................",
".................... .( F c 7 2 r r t t t t t t t 0 4 c F ( ......................",
".................. .W F x 9 0 0 t t t t t t t w w 0 0 9 x F W  .+.................",
"................o.' H c 9 1 r t t t t t t t t t t t t 2 6 v F ' ..................",
"................ .W n 4 w t t t t t t t t t t t t t t t r 6 n Q ..................",
"................( F f > w t t t t r 4 = * * * = 3 6 q t w 1 k F Q .. . ...........",
"..{ ....{ ......L v p w e r t t r 0 = + . . . o # = q t t 0 p n L  . . ...{ ....{ ",
"......{  . ...{ D d 0 t t t t q 0 r 4 * O       X & t t t w r d D  .o. ...........",
"{ ...... . .....C 5 6 t t t t 4 3 6 q 6 * O .     % r t t t 6 5 B  .o. .{ ..{ ....",
"..{ ..{  . ... .B , 1 t t t r * # 3 6 q 6 = @     % q t t t 2 , B  ...........{ ..",
"..............[ V , 1 t t t 0 % . $ 3 6 r 6 * @ . % q t t t 2 : C { ....{ ......{ ",
"{ ......{ ..{ ..V : 1 t t t q % . . # ; q q 6 = + & r t t t 1 , C ....{ ......{ { ",
"..{ ..{ ..{ ..{ V 7 0 e t t w %     o $ - q t 4 = - r t t t 0 5 Z { ......{ ....{ ",
"{ ..{ ....{ ..{ A i 0 w t t e % .     . # ; 6 q 6 6 t t w w q u S { { ..{ ..{ { { ",
"..{ ..{ { ....{ J l g w t t r = O       . # - 6 q t t t w w p l J ..X.{ { ....{ { ",
"{ ..{ ....{ ..{ R B f 1 w t r 4 * $ # # @ % ; q t t t t w 2 f V R ..{ ..{ ..{ ..{ ",
"..{ ..{ { ..{ ..~ Y x : w t t t 0 6 6 6 q q q t t t t t w : x Y ~ ....{ ..{ ..X...",
"{ { { ..{ ..{ ..{ ! B d 6 0 t t t t t t t t t t t t t 1 6 d Z _ X.{ ..{ { { { { { ",
"..{ { ..{ { { { { ~ I V p 0 t t t t t t t t t t t e q 0 s B Y ~ { { { { ..{ ..{ { ",
"{ ..{ { { ..{ ..{ { ~ T V h : 1 0 q t t t t t t w 1 < k V Y ~ { { { { { ..{ { { { ",
"{ { ..{ { { { { ..{ { ~ T C j s p 9 0 1 1 0 0 r g s j C R ~ { { { ..{ ..{ { { ..{ ",
"{ { { { ..{ ..{ { ..{ ..~ ! P Z v i 5 - > : 4 u z Z P ! { { { { ..{ { { ..{ ..{ ..",
"..{ ..{ { { { { { { { { { { ~ R G C N N N N N Z G R ~ ..{ ..{ ..{ { { ..{ { { { { ",
"{ { { ..{ { ..{ {  .{ { { { { { { { { { ^ { ^ { ~ { { { { ..{ { { { ..{ { { ..{ { ",
"{ { { { { { { { { { { { {  .{  .{ { { { { { { { { { { { { { { { { { { { { { { { { ",
"{ { { { { { { { { { { { { { { { { { { { { { { { { { { { { { { { { { { { { { { { { ",
"{ { { { { { { { { { { { { { { { { { { { { { { { { { { { { { { { { { { { { { { { { ",
"{ { { { { { { { { { { { { { { { { { { { { { { { { { { { { { { { { { { { { { { { { ",
"{ { { { { { { { { { { { { { { { { { { { { { { { { { { { { { { { { { { { { { { { { ",
"^ ^ { { ^ { { ^ { { { ~ { { { { { ^ { ^ ^ ^ { ^ ^ ^ { { ^ { { ^ ^ { ^ { { ~ ~ { { ",
"^ ^ ^ ^ ^ ^ ^ ^ { ~ { { { { ~ { ^ ^ ^ { ^ { ^ ^ ^ ^ ^ ^ ^ ^ ^ { ^ ^ { ^ { { { { { "
};
