/* XPM */
static char *menu_pressed_xpm[] = {
/* columns rows colors chars-per-pixel */
"41 44 32 1 ",
"  c #585858",
". c #5B5B5B",
"X c #6A6A6A",
"o c #6D6D6D",
"O c #717171",
"+ c #737273",
"@ c #757575",
"# c #7A7A7A",
"$ c #7F7F7F",
"% c #838283",
"& c #868586",
"* c #8C8B8C",
"= c #8C8C8C",
"- c #9B9B9B",
"; c #A1A1A1",
": c #A5A4A5",
"> c #B7B6B7",
", c #BABABA",
"< c #C1C0C1",
"1 c #C7C7C7",
"2 c #C8C7C8",
"3 c #C9C8C9",
"4 c #D4D3D4",
"5 c #D5D4D5",
"6 c #D8D7D8",
"7 c #DCDBDC",
"8 c #DFDEDF",
"9 c #E0DFE0",
"0 c #E3E2E3",
"q c #E4E3E4",
"w c #E6E5E6",
"e c #E8E7E8",
/* pixels */
"wwwwwwwwwwwwwwwwwwwwwwwwwwwwwwwwwwwwwwwww",
"wwwwwwwwwwwwwwwwwwwwwwwwwwwwwwwwwwwwwwwww",
"wwwwwwwwwwwwwwwwwwwwwwwwwwwwwwwwwwwwwwwww",
"wwwwwwwwwwwwwwwwwwwwwwwwwwwwwwwwwwwwwwwww",
"wwwwwwwwwwwwwwwwwwwwwwwwwwwwwwwwwwwwwwwww",
"wwwwwwwwwwwwwwwwwwwwwwwwwwwwwwwwwwwwwwwww",
"wwwwwwwwwwwwwqwwwwwwwwqwwqwwwwwwwwwwwwwww",
"qwqwqwwwqwqwqwwwwwwqwwwqqwwwqwwwwqw0ww0ww",
"wqwqqwqwqwqwwqwqqwqwqwqwwqwqwqwq0www0w0ww",
"qwqwwqwqwqwqqwqwwqwqwqwqqwqwqwqwww0wqwww0",
"wwwqwwqwqwqwwqqwqwwwqwqwwqwwwwwqw00www0ww",
"qqqwqqwqqqwqqwqwqqqqwqwqqwqqqqqww0ww0ww0q",
"qqqqqqqwqqwqqqqqqqqqqqqwqqqqqqqqqw000wwq0",
"qqqqqqqqqqqqqqqqqqqqqqqqqqqq0qqq0w0w0000w",
"qqqqqqqqqqqqqqqqqqqqqq0wqq0qqqqq00w0w00w0",
"qqqqqqqqqqqqqqqqq0wqqqqqqqwqqqqqw000w00w0",
"q00ww000w000000wqqqqqqqqqqqqqqqq0w0qqqqqq",
"qw0000ww00wwww00qqqqqqqqqqqqqqqq00qq0wq0w",
"00w00000000q00w00qqqq0qqqqqqqqq00000000w0",
"00000000000000000000000w00000000000000000",
"0000000000000wwweeeeeeeeweww0000000000000",
"000000000000w5111233333321260000000000000",
"00000000000ww>#O@@@@@@@@@O#>qw00000000000",
"00000000000q0<=X      .  X=<0q00000000000",
"000000000000095-oXXXXXXXo-400000000000000",
"0008080009900w03:%oOOOo$:30w0990008009000",
"008090800090000w4;&%%%&;5w090900080000990",
"000000909000808084,;-;>49q000009008090008",
"00000090009990000w4<,<6w00009900080880800",
"98099090900000990098789090990009000000000",
"08000808809090000800q00009000990090808808",
"80808080080808808080998909999099808080080",
"08088908088080808908088080808908080880880",
"80800880800808980880800808980880808008908",
"80908080080008088080080008088080809080800",
"08080808808980800808808980800808080808088",
"80080890800800800800088008080890800808900",
"88800880888088888088808898800880888809808",
"88888808088988889888880888888808888088998",
"80898888888808809998088808998888808888998",
"99889988800889990880880880809988808088888",
"89808998888889088888988988889980888880880",
"88888888888888888888888888888888888888888",
"88888888888888888888888888888888888888888"
};
