/* XPM */
static char *shade_inactive_xpm[] = {
/* columns rows colors chars-per-pixel */
"41 44 56 1 ",
"  c #535353",
". c #616162",
"X c #646464",
"o c #6A6A6A",
"O c #6B6C6C",
"+ c #6C6C6C",
"@ c #6F6F6F",
"# c #717171",
"$ c #737373",
"% c #757474",
"& c #757475",
"* c #797A79",
"= c #7B7B7B",
"- c #7D7C7D",
"; c #868586",
": c #868686",
"> c #898989",
", c #8C8C8C",
"< c #8D8D8D",
"1 c #90908F",
"2 c #909090",
"3 c #939292",
"4 c #949494",
"5 c #9E9E9E",
"6 c #9F9F9F",
"7 c #A2A2A3",
"8 c #A3A2A3",
"9 c #A3A3A3",
"0 c #AEAEAE",
"q c #AFAFAF",
"w c #B0AFAF",
"e c #B3B2B2",
"r c #B4B3B4",
"t c #B7B6B6",
"y c #BCBCBC",
"u c #BEBDBD",
"i c #BFBFBF",
"p c #C0BFC0",
"a c #C1C0C0",
"s c #C1C1C1",
"d c #C2C2C2",
"f c #C6C6C6",
"g c #C8C7C8",
"h c #C9C8C9",
"j c #CECDCE",
"k c #D7D6D7",
"l c #D8D7D8",
"z c #DBDADB",
"x c #DDDCDD",
"c c #DEDDDE",
"v c #E0DFE0",
"b c #E3E2E3",
"n c #E4E3E4",
"m c #E6E5E6",
"M c #E8E7E8",
"N c #E9E8E9",
/* pixels */
"mmmmmmmmmmmmmmmmmmmmmmmmmmmmmmmmmmmmmmmmm",
"mmmmmmmmmmmmmmmmmmmmmmmmmmmmmmmmmmmmmmmmm",
"mmmmmmmmmmmmmmmmmmmmmmmmmmmmmmmmmmmmmmmmm",
"mmmmmmmmmmmmmmmmmmmmmmmmmmmmmmmmmmmmmmmmm",
"mmmmmmmmmmmmmmmmmmmmmmmmmmmmmmmmmmmmmmmmm",
"mmmmmmmmmmmmmmmmmmmmmmmmmmmmmmmmmmmmmmmmm",
"mmmmmmmmmmmmmnmmmmmmmmmmmmmmmmmmmmmmmmmmm",
"mnnmnmmmnmnmnmmmmmnmmnnmmnmnmnmmnmbmmbmmm",
"nmnmmnmnmnmnmnmnmnmnnmnmnmmnmnmnmnmnmnmbm",
"mnmnnmnmnmnmnmnmnmnmmnmnmnnmnmnmnmnmnmmbm",
"nmnmmnmnnmmnmnnmmnmnnmmmnnmnmmmnmnbmmmnmm",
"nnmnmnnmmnmnnmnmnmnmnnnmnmnmnnnmmbmmbmnmb",
"nnnmnnnnbnnnnmnnbnnmnnnnnnbmbnnnnmbbbmnnn",
"nnnnnnnnnnnnnbnnnnnbnbnnnnnnnnnnnnbmbnnnn",
"nnnnnnnnnnnnnnnnnnnnnmnnnnnnnnnnnnnnmbnnn",
"nnnnnnnnnnnnnnnnnnmMNMmnnnnnnnnnnnnnnnnnn",
"mbbbbmmbbbbmmbbbmmzfafzmnnnnnnnnnnnnnnnnn",
"bbmmbbbmmmbbbbmmnmp-o-ammnnnnnnnbmnnnnbmn",
"bbbbbmbbbbmbbbmmcu2. .2ucMnbnnnnbbbbbnnbb",
"bbbbbbbbbbbbbbbbh;XXXXX;hbbbbbbbbbbbbbbbb",
"bbbbbbbbbbbbbmbu2#XoooX$2ybmbbbbbbbbbbbbb",
"bbbbbbbbbbbbbch1O+#+#+@+O4hcbbbbbbbbbbbbb",
"bbbbbbbbbbbmma>=##&&&&&&&=2annbbbbbbbbbbb",
"bbbbbbbbbbbbbh7677777888767gnnbbbbbbbbbbb",
"bbbbbbbbbbbbbczkkzkkllkkllkcbbbbbvbbvbbvb",
"bbbbvbbvvbbbbjteereerrrrreezbbvbbbbbbbbbb",
"bbvvbbbvvbbbbu2>,<<,<,<<<<2abbbbbvbbvvbbb",
"bbbbvvbbbbvbba4<2<2221222<4abbbvbbvvbbbvv",
"bbbvbbbvvbbbbje00qw0wqwww0ejbbbbvbbbbbbvb",
"vvbbbvbbbbvbbczzzzzzzzzzzzzvbvbvbbvbbvbbb",
"bvbbbbcbbvvbvbnnbbmbbnbbnnnbbbvbbvvbvvvbv",
"bvcbccbvvbvvbvvvbbvbvvbbvbvvvvvvvbvvvbvbv",
"cbcbbcbvbccbvbvbvbvvvvbvvvbvbvvvbbvvvvbbv",
"bvbvvbcbvbbvbcbcvbvbvbvvbvbvvvbvvvvbbvvvv",
"bccbbcbvbvbvbcvvvvbvvvbbvbvvvbvbvvvbbvvvb",
"cbbcvbcbcbcbvbvbbvvvbvvvvvvbvbvvbbvvvvbbv",
"bcbcbvbccbvbvbvvvbvbvbvvbvvbvvbvvvbvvvbvv",
"cbcbbccbbvvcvvvvvvvvvvvvvvvvvvvvvvvvvvvvv",
"vvcvcvcvcccbvvvvvvvvvvvvvvvvvvvvvvvvvvvvv",
"vvbcvvbccbvvvvvvvvvvvvvvvvvvvvvvvvvvvvvvv",
"vvvvvvvcvvvvvvvvvvvvvvvvvvvvvvvvvvvvvvvvv",
"vvvvvvvbvvcbvvvvvvvvvvvvvvvvvvvvvvvvvvvvv",
"cvvvcvvcccvcvccvcvvvcvcvcvvcvcvccvvvcvvvc",
"cccvcccvcvcvcvccvccccvcvvcvccvcvcccvccccv"
};
