/* XPM */
static char *stick_inactive_xpm[] = {
/* columns rows colors chars-per-pixel */
"41 44 51 1 ",
"  c #616161",
". c #656564",
"X c #666666",
"o c #686868",
"O c #6E6E6E",
"+ c #70706F",
"@ c #717272",
"# c #737373",
"$ c #767776",
"% c #7B7B7B",
"& c #7C7B7B",
"* c #7E7E7E",
"= c #80807F",
"- c #807F80",
"; c #818281",
": c #848484",
"> c #868585",
", c #8A8A8A",
"< c #8B8B8B",
"1 c #8C8C8B",
"2 c #8C8C8C",
"3 c #949493",
"4 c #989998",
"5 c #9D9C9D",
"6 c #A8A7A8",
"7 c #A8A8A8",
"8 c #ADACAC",
"9 c #AFAFAF",
"0 c #B1B1B1",
"q c #B3B3B3",
"w c #B6B6B6",
"e c #B9B8B8",
"r c #BCBCBC",
"t c #BDBCBC",
"y c #BFBEBE",
"u c #BFBFBF",
"i c #C4C4C4",
"p c #C5C4C4",
"a c #D0CFD0",
"s c #D3D3D3",
"d c #D4D3D3",
"f c #D5D4D5",
"g c #DBDADB",
"h c #DCDBDC",
"j c #DEDDDE",
"k c #DFDEDF",
"l c #E0DFDF",
"z c #E0DFE0",
"x c #E3E2E3",
"c c #E4E3E4",
"v c #E6E5E6",
/* pixels */
"vvvvvvvvvvvvvvvvvvvvvvvvvvvvvvvvvvvvvvvvv",
"vvvvvvvvvvvvvvvvvvvvvvvvvvvvvvvvvvvvvvvvv",
"vvvvvvvvvvvvvvvvvvvvvvvvvvvvvvvvvvvvvvvvv",
"vvvvvvvvvvvvvvvvvvvvvvvvvvvvvvvvvvvvvvvvv",
"vvvvvvvvvvvvvvvvvvvvvvvvvvvvvvvvvvvvvvvvv",
"vvvvvvvvvvvvvvvvvvvvvvvvvvvvvvvvvvvvvvvvv",
"vvvvvvvvvvvvvvvvvvvvvvvvvvvvvvvvvvvvvvvvv",
"cvcvcvvvvvccvcvcvvcvcvcvvccvcvvvcvcvcvcvv",
"vcvccvcvcvcvvcvvvcvccvcvcvcvcvcvvcvcvcvcc",
"cvcvvcvcvcvccvcvcvcvvcvcvcvcvcvccvcvcvcvc",
"vvvcvvcvvccvvccvvcvccvvvvvcvcvcvvcvcvcvvc",
"cccvccvvcvcccvcvcvcvcccvccvccvcccvcvcvccc",
"cccccccccccccvcccccccccccccvccccccccccccc",
"cccccccccccccxccccccccccccccccccccccccccc",
"ccccccccccccccccccccccccccccccccccccccccc",
"ccccccccccccccccccccccccccccccccccccccccc",
"ccccccccccccccccccvvvvxvxvccccccccccccccc",
"cccccccccccccccccvccxvvxxxccccccccccccccc",
"cxcccxcccxccxcxcxay090uaxvcccxcccxcxccccc",
"xxxxxxxxxxxxxxxxs91@o@19dxccxxxxxxxxxxxxx",
"xxxxxxxxxxxxxcxa0,+X X+,0azcxxxxxxxxxxxxx",
"xxxxxxxxxxxxxcjy3@XoooX@3yzvxxxxxxxxxxxxx",
"xxxxxxxxxxxxxvj8;@++OOO@=9jcxxxxxxxxxxxxx",
"xxxxxxxxxxxxxvj6&$$$$$$$&7jcxxxxxxxxxxxxx",
"xxxxxxxxxzxxxcj9:*******:9jcxzxxxzcxzxcxz",
"xxxzzxxzxxxxxcju5,;:;;;,5ujxxxxxxxxxzxzxz",
"xxxxxxxzzxxxxxzae522,215eazxzxzxxzxzxxxxc",
"xzzxzzxxxxzzzxzjdu64347rdjxxxxzxxzxxxzzxc",
"zxxxxxxzzxxxxxxxjdiw0widzcxzxxzxxzxxxzzxz",
"xxzxxzxxxxzxzzxxxjjgggjlzxxxzxzxxzxzxxxxx",
"zxxzzxzxxzzxxzxzzxxcccxxxzxzzxxzxxxxzxxzz",
"zzzzxzzzzxzzxzzzxzxzxzzxzzzxzzxzzzzzzzzzx",
"xxzzzzxzxzzxzzzxzzxxzzzxzzzxzxzzzzxzxzzzx",
"zzzxxzzzxzzxzxzzxzzzzxzzzxzzzxzxxzxzzzxzz",
"zzzxxzzzzzzzxzxzxzzzzzxxxzxzzzxzzxzzzxzxz",
"xxzzzzxxzxxzzzxzzzxxxzzzzzxzxzzzzzzxzxzzx",
"zzxzzzxzxzzxzxzzzxzzzxzzzxzzxzzxxzzxzzxzz",
"zzzzzzzzzzzzzzzzzzzzzzzzzzzzzzzzzzzzzzzzz",
"zzzzzzzzzzzzzzzzzzzzzzzzzzzzzzzzzzzzzzzzz",
"zzzzzzzzzzzzzzzzzzzzzzzzzzzzzzzzzzzzzzzzz",
"zzzzzzzzzzzzzzzzzzzzzzzzzzzzzzzzzzzzzzzzz",
"zzzzzzzzzlzlzzzzzzzzzzzzzzzzlzzzzzzzzzzzz",
"llzjljlllllllzllzjjzzzjzljzzljlzzjzzljzzz",
"ljllljlljljzjjljjlzljlzjjzjjlzjljzjjlzjjl"
};
