/* XPM */
static char *title_2_active_xpm[] = {
/* columns rows colors chars-per-pixel */
"44 44 5 1 ",
"  c #DFDEDF",
". c #E0DFE0",
"X c #E3E2E3",
"o c #E4E3E4",
"O c #E6E5E6",
/* pixels */
"OOOOOOOOOOOOOOOOOOOOOOOOOOOOOOOOOOOOOOOOOOOO",
"OOOOOOOOOOOOOOOOOOOOOOOOOOOOOOOOOOOOOOOOOOOO",
"OOOOOOOOOOOOOOOOOOOOOOOOOOOOOOOOOOOOOOOOOOOO",
"OOOOOOOOOOOOOOOOOOOOOOOOOOOOOOOOOOOOOOOOOOOO",
"OOOOOOOOOOOOOOOOOOOOOOOOOOOOOOOOOOOOOOOOOOOO",
"OOOOOOOOOOOOOOOOOOOOOOOOOOOOOOOOOOOOOOOOOOOO",
"OOOOOOOOOOOOOOOOOOOOOOOOOOOOOOOOOOOOOOOOOOOO",
"oOoOoOOOOoOoOooOOOoOoOoOOoOoOoOOOoOoOoOoOOoO",
"OoOoOoOoOoOooOoOoOoOoOoOoOOoOoOooOOoOooOOoOo",
"oOoOoOoOoOoOOoOoOoOoOoOoOooOoOOOOooOoOOooOoO",
"oOOoOoOoOOOooOOOoOOOoOoOoOooOooOoOOoOOOOOoOo",
"OoOooOoOoooOOoooooooOoOOoOoOoOooOooOoooooOoO",
"XoooOoooooooooOooooooooooooOooooOoooooOooooo",
"ooooooooooooooooooooooooooooooooooooooXooooo",
"ooooooooooooooooXOoooooooooooooooooooooooooo",
"oooooooooooooooooooooooooooooooooooooooooooo",
"ooooooooooooooooooooooooOXoooooooooooooooooo",
"oooooooooooooooooooooooooooooooooooooooooooo",
"oXoooooXoooXooXXXooooXooooXoXoooooXXooXooooo",
"XXXXXXXXXXXXXXXXXXXXXXXXXXXXXXXXXXXXXXXXXXXX",
"XXXXXXXXXXXXXXXXXXXXXXXXXXXXXXXXXXXXXXXXXXXX",
"XXXXXXXXXXXXXXXXXXXXXXXXXXXXXXXXXXXXXXXXXXXX",
"XXXoXXXXXXXXXXXXXXXXXXXXXXXXXXXXXXXXXXXXXXXX",
"XXXXXXXXXXXXXXXXXXXXXXXXXXXXXXXXXXXXXXXXXXXX",
"XXX.XX.XXX.XX..XX..XXXXXXXXX.XXXXX.XX..XXXXX",
"XXXXXXXXXXXXXXXXXXXX.X.XXXXXXXX.XXXXXXXXX.XX",
"..XXX..X.XXX..XXX.XXXX.XXX..XXX..XXX..XX.XX.",
"XXX.XXX.XX..XXX.XX.XX.XX.XXX..XXXX..XXX..XXX",
"XXX.XX.X.XXXXXX...XXXX...XXXXXX..XXXXXX.XXX.",
"..XX.X.XXX.X..XXXXX.X.XXXX.XX.XXXX.X..XXX.XX",
"X..XX.X.X..XX..XX..X.XX..XX..X..X..XX..XX..X",
"X.X...X..X..X.X..X..X..X....X..X.X..X.X..X. ",
"...XX...X...XX..X....X..XX..X...XX....XX..X.",
".X....X.X..X...X..X...X....X..X....XX....X..",
"X.X..X.X.......X.X.XXX.....X.X.X...XX.. ..XX",
"..X..X...XX.XX...X.....XXX...X..XX....XXX...",
".XX..XX.X..X..X.X..X.X.X..X..XX. .X..XX..X.X",
". ... .. ............. ...... ....... .. ...",
" ... ... .... ...... ....... ......... .... ",
"................. ......................... ",
"............................................",
"..... ...... ........ ... ..... .... .... ..",
"                                            ",
"                                            "
};
