/* XPM */
static char *top_left_inactive_xpm[] = {
/* columns rows colors chars-per-pixel */
"8 44 13 1 ",
"  c #DFDEDF",
". c #E0DFE0",
"X c #E1E0E1",
"o c #E1E1E1",
"O c #E2E1E2",
"+ c #E2E2E2",
"@ c #E3E2E3",
"# c #E3E3E3",
"$ c #E4E3E4",
"% c #E4E4E4",
"& c #E5E4E5",
"* c #E6E5E6",
"= c None",
/* pixels */
"======oo",
"======&o",
"===&**&&",
"==o&****",
"==&&****",
"==&*****",
"=&******",
"oo&&&&&&",
"oo&&&&&&",
"o&&&&&&&",
"&&&&&&&&",
"&&&&&&&&",
"&o&$$$&$",
"&&$$$$$$",
"$$$$$$$$",
"$$$$$$$$",
"$$$$$$$$",
"$$$$$$$$",
"$$$$$$$$",
"$.$$.$$.",
"$$$$o$$$",
"$.$.$$o$",
".$$$$oo$",
"$$$.$o$o",
".$$.$$$.",
".$$..$$.",
".$.$.$.$",
"$.$.$.$.",
".$.$.$.$",
"$.$$$.$.",
".....$.$",
"$.$.....",
"..$...$.",
".....$..",
"..$.....",
".$...$.$",
"$...$...",
"........",
"........",
"........",
"........",
"........",
"    ....",
"      .."
};
