/* XPM */
static char *close_active_xpm[] = {
/* columns rows colors chars-per-pixel */
"41 44 118 2 ",
"   c #3B3C3F",
".  c #403C3F",
"X  c #4D3A3E",
"o  c #4C3B3F",
"O  c #4A3C3F",
"+  c #52393E",
"@  c #56393D",
"#  c #5A3A3F",
"$  c #68373D",
"%  c #61383E",
"&  c #67383E",
"*  c #693A3F",
"=  c #6E383F",
"-  c #6F383F",
";  c #7F373E",
":  c #71393F",
">  c #73393F",
",  c #74393F",
"<  c #78393F",
"1  c #7E383E",
"2  c #3B3E41",
"3  c #393F42",
"4  c #3E3D40",
"5  c #3E3F42",
"6  c #403C40",
"7  c #403E41",
"8  c #463D41",
"9  c #4A3C40",
"0  c #4B3C40",
"q  c #4C3C40",
"w  c #563B40",
"e  c #533C40",
"r  c #613C41",
"t  c #683C41",
"y  c #6C3D42",
"u  c #3F4043",
"i  c #8E353D",
"p  c #82393F",
"a  c #83393F",
"s  c #84393F",
"d  c #96363E",
"f  c #A2373F",
"g  c #AD373F",
"h  c #803B40",
"j  c #843A41",
"k  c #893940",
"l  c #883B42",
"z  c #8F3A41",
"x  c #8A3C42",
"c  c #913B42",
"v  c #9D3A41",
"b  c #9E3A41",
"n  c #A23740",
"m  c #AC3740",
"M  c #A23840",
"N  c #A33941",
"B  c #AA3A42",
"V  c #AE3A42",
"C  c #AC3D44",
"Z  c #AF3C44",
"A  c #B63840",
"S  c #B63B42",
"D  c #B83B43",
"F  c #BD3E46",
"G  c #C03941",
"H  c #C03842",
"J  c #C43E46",
"K  c #C53F47",
"L  c #CE3943",
"P  c #C83A44",
"I  c #CB3A44",
"U  c #D33A44",
"Y  c #D23B44",
"T  c #D43B45",
"R  c #D73D46",
"E  c #DA3C45",
"W  c #DB3C45",
"Q  c #DD3C46",
"!  c #E03D46",
"~  c #C44048",
"^  c #C54048",
"/  c #C94148",
"(  c #D0434B",
")  c #D64149",
"_  c #D0444B",
"`  c #D9414A",
"'  c #DB424A",
"]  c #DC424A",
"[  c #D9464D",
"{  c #E34048",
"}  c #E34149",
"|  c #E7434B",
" . c #E6434C",
".. c #E3454D",
"X. c #E0464D",
"o. c #E4454D",
"O. c #E5454D",
"+. c #E4474E",
"@. c #E9464E",
"#. c #EE444D",
"$. c #E4484F",
"%. c #EB484F",
"&. c #EC484F",
"*. c #EB4A51",
"=. c #EC4850",
"-. c #EF4C53",
";. c #EE4D54",
":. c #F14950",
">. c #F04A51",
",. c #F44C53",
"<. c #F34D54",
"1. c #F04F55",
"2. c #F24E54",
"3. c #F34F56",
"4. c #F25056",
"5. c #F25157",
"6. c #F35157",
"7. c #F45056",
/* pixels */
"u u u u u u u u u u u u u u u u u u u u u u u u u u u u u u u u u u u u u u u u u ",
"u u u u u u u u u u u u u u u u u u u u u u u u u u u u u u u u u u u u u u u u u ",
"u u u u u u u u u u u u u u u u u u u u u u u u u u u u u u u u u u u u u u u u u ",
"u u u u u u u u u u u u u u u u u u u u u u u u u u u u u u u u u u u u u u u u u ",
"u u u u u u u u u u 5 u u u 5 5 u u u u u u u u u u u u u u u u u u u u 5 6 5 5 u ",
"5 5 5 5 u 5 5 5 5 5 5 5 5 5 5 5 u u 5 5 5 5 6 5 5 5 5 5 u u u u 5 u 5 5 5 5 5 5 u ",
"5 5 5 5 5 5 5 5 5 5 5 5 5 5 5 5 5 5 5 5 5 5 5 5 5 5 5 5 5 5 5 5 5 5 5 5 u 5 5 5 5 ",
"5 5 5 5 5 5 5 5 5 5 5 5 5 5 5 5 5 5 5 5 5 5 5 5 5 5 5 5 5 5 5 5 5 5 5 5 5 5 5 5 5 ",
"5 5 5 5 5 5 5 5 5 5 5 5 5 5 5 5 5 5 u 2 5 5 5 u 5 5 5 5 5 5 5 5 5 5 5 5 5 5 5 5 5 ",
"5 5 5 5 5 5 5 5 5 5 5 5 5 5 5 5 5 u 2 u 5 u 2 2 5 5 5 5 5 5 5 5 5 5 5 5 5 5 5 5 5 ",
"5 5 5 5 5 5 5 5 5 5 5 5 5 5 5 5 2 u u 5 2 u 5 5 u 5 5 5 5 5 5 5 5 5 5 5 5 5 5 5 5 ",
"5 5 5 5 5 5 5 5 5   5 5 5 5 5 9 w w t t t r t r e 9 5 5 2 5 5 5 5 5 5 5   5 5 5 5 ",
"5 5 5   5 5   5 5 5 5 5   6 9 * i m H P L P H m i * 9 6 5 5 5     5 5 5   5 5 5 5 ",
"  5 5   5   5 5 5   5 5 X * z Z ~ ] | @.@.@. .` ~ Z z * o 5 2 5 5 5   5 5 5     5 ",
"5 5 5 5 5 5     5   5 X - n R @.;.<.,.7.5.;.5.<.;.@.E N - X 5 5 5   5 5 5   5 5   ",
"5     5   5 5 5   5 X > Z ) =.<.5.5.7.7.5.5.5.5.<.<.@.) V > X   2 5     5 5   5 5 ",
"5 5 5   5     5 u 8 - N ] =.5.5.5.5.<.<.5.5.5.5.5.5.5.=.] N y 8 2 5 5 5   5   5 5 ",
"    5 5 5 5 5 5 2 w v E -.5.5.1.5.5.5.5.5.1.1.5.1.<.1.<.*.R v w   5   5   5 5     ",
"5 5   5   5 5   o - F :.<.5.5.<.5.;.5.5.5.5.5.5.5.5.5.5.7.@.F t X 5   5 5 5 5 5 5 ",
"5   5 5   5 5   # d / <.5.5.5.5.5.5.5.5.<.5.5.;.5.1.5.5.7.,.( d % 5 2 5 5     5 5 ",
"5 5   5 5   2 5 , g +.7.5.1.5.1.5.5.5.;.5.5.5.5.<.5.5.5.7.7.X.V y . 5   5     5   ",
"  5   5 5   2 5 p Y @.7.5.5.5.5.5.;.5.5.5.5.5.5.5.5.5.<.7.7.@.Y j 6 5 5 5 5 5 5 5 ",
"5   5 5 5 2 2 u j Q &.7.5.5.5.5.5.<.5.5.5.;.5.5.5.1.5.5.5.5.&.E j     5   5 5   5 ",
"5 5 5   5 u 2 . x Q :.7.5.<.5.5.5.5.5.5.<.5.5.5.5.5.5.5.5.7.:.Q j 5 2 5   5 5     ",
"  5 5 5   5   5 l E &.7.5.5.6.7.5.5.5.5.5.5.5.5.5.5.5.1.5.5.@.E l 5 4 5   5 5 5 5 ",
"5     5 5   2   s Y &.7.5.5.6.>.5.5.5.5.5.5.1.5.5.1.5.5.5.5.%.Y j   2 2 5     5   ",
"  5     5     5 < H +.7.5.5.5.5.1.5.>.5.;.5.5.<.5.5.5.1.5.5.X.H < 5   2           ",
"      5   2     $ f ] 7.5.,.5.5.<.5.5.5.5.5.5.5.<.1.5.5.5.5.] f $   2     5 5   5 ",
"  5 5       2   + 1 ^ &.-.5.5.5.1.5.5.1.5.5.5.5.5.5.5.5.<.&.~ p @   4   5         ",
"        5     5 . # B | -.5.5.5.5.5.5.5.5.<.5.;.5.5.5.5.-.{ B #   5   5     5 5   ",
"5     5   5   5   O p D ..>.5.5.>.5.5.5.5.5.5.5.5.5.7.,.+.S 1 O 2         5     5 ",
"5     5           . @ p J $.-.5.5.5.5.1.5.5.5.5.5.>.>.+.^ p @       5 5     5     ",
"      5     5 5     . # s A { =.5.,.5.6.5.7.,.6.7.:.| A a # .   5   5   5       5 ",
"  5     5         5   . @ 1 V / [ +.=.=.<.=.@.+.[ / V 1 @ .   2     5       5     ",
"5   5   5   5       5 5   X w p f G U Q ! Q R F f ; w q   5       5       5   5   ",
"    5           5       5 5 6 @ $ ; l z c c j 1 $ @ 2 5     5 5       5   5     5 ",
"  5   5       5 5           5       . u . 5     5     5         5       5   5     ",
"      5   5   5     5 5 5   5   2   2             5   5   5 5   5   5   5         ",
"  5       5       5       5       5 2   2         5         5         5       5   ",
"                                                                                  ",
"                                                                                  ",
"                                                                                  ",
"                                                                                  ",
"                                                                                  "
};
