/* XPM */
static char *close_prelight_xpm[] = {
/* columns rows colors chars-per-pixel */
"41 44 89 1 ",
"  c #3B3C3F",
". c #413C3F",
"X c #4C3B3F",
"o c #54393E",
"O c #5B3A3F",
"+ c #76272A",
"@ c #7C292C",
"# c #68373D",
"$ c #63383E",
"% c #6C393E",
"& c #7E373E",
"* c #72393F",
"= c #7D383F",
"- c #3D3E41",
"; c #413D40",
": c #4B3C40",
"> c #553C40",
", c #633C41",
"< c #6A3D42",
"1 c #3F4043",
"2 c #822B2E",
"3 c #862D30",
"4 c #8B2E31",
"5 c #8E353D",
"6 c #83393F",
"7 c #993337",
"8 c #96363E",
"9 c #9E3438",
"0 c #A4363C",
"q c #AD373F",
"w c #AB393D",
"e c #B13B3F",
"r c #843A41",
"t c #8B3B41",
"y c #913B42",
"u c #9E3A41",
"i c #A23740",
"p c #AC3740",
"a c #A23941",
"s c #AD3B43",
"d c #B73740",
"f c #B63B42",
"g c #BD3D44",
"h c #C23B44",
"j c #CB3A43",
"k c #D53C45",
"l c #DB3C46",
"z c #E03D46",
"x c #C34045",
"c c #C94247",
"v c #C44048",
"b c #CA4248",
"n c #D4454B",
"m c #DA424A",
"M c #D9464D",
"N c #D7484C",
"B c #DA484D",
"V c #DD494F",
"C c #E34048",
"Z c #E24149",
"A c #E44049",
"S c #E3454D",
"D c #E0464D",
"F c #E9464E",
"G c #EC444C",
"H c #EE464E",
"J c #E4484F",
"K c #EB484F",
"L c #E34B51",
"P c #E44C51",
"I c #EC4850",
"U c #E84D52",
"Y c #EA4D53",
"T c #EF4C53",
"R c #EC4E54",
"E c #ED4F54",
"W c #EF4F55",
"Q c #F04951",
"! c #F14B52",
"~ c #F44C53",
"^ c #F34D54",
"/ c #F04F55",
"( c #F34F56",
") c #F15056",
"_ c #F35156",
"` c #F35057",
"' c #F25157",
"] c #F45056",
"[ c #F45157",
/* pixels */
"11111111111111111111111111111111111111111",
"11111111111111111111111111111111111111111",
"11111111111111111111111111111111111111111",
"11111111111111111111111111111111111111111",
"11111111111111111111111111111111111111111",
"1-1-1--1-11-1-1111111-1-1-1-111;11-1-11-1",
"-1-11-1--1-1-11-1-1--1-1-1-11-1-1-1--1-1-",
"1-11-1-11-1-1--1-1-11-1-1-11-1-1-1-1-11-1",
"-1-11-1-11-11-1--11-1----1-1-11--1-1-1-1-",
"1--1-1-1;11--1-11-11-11-1-1-1--11-1-1-1-;",
";11-1-1--1-11--1-1111---1-11-11-11-1-1-1-",
"1-1--1-1--1-1--:>>,<<,<,>:--1-1---1-1-1--",
"-----1-------;:%5pghjjgp5%:;-------11;---",
"-----------;X<tsvmzGFFCmvst#:------------",
"-----------o*ikFW^^`^``^WFka*:-----------",
"--------1-X<smI^````````[^Kms*X;---------",
"--------1-*amW``^W`WW`W```W!m0%----------",
"---------oukK````WW````WYW``Im8>---------",
"--------X*gHW``cgxNY`WNxgNW`[Hx<:--------",
"----1---$8nW``Yf34pBPVw43wY``[n8$-------;",
"--------*eF```Pw3@4wfw4@@fP``^Ve<;-------",
"--------6jF`W`Yx73@343@37xW```Fkr--------",
"--------tlK````Lb92@@@27cL^W[[Kkr;-------",
"1-------tlK`^``[V03++@20V[``[[Hlr--------",
"--------tlH````UN02@+@20nW````Klr--------",
"---- ---6kF````nw4@222@4wcW```Kk6------- ",
"- -  -  &gL`W`Pf3237972@4fR`[[Ve=--   -  ",
"-- -- --#0M```Pq229bNb922wP[[!Mw$ -- - --",
" - - - -o=vH^`Ux0wxU`Jxw0xU`^Iv&o - - - -",
"- - - -  OsCR``ULLUW`WUPLU``WCpO.- - - - ",
" - - - - X6eF!````[```[[[[`!Ff=:- - - - -",
"- - - -  .O6xSRW````^[W[[[WJh6o- - - - - ",
" - -- - - .O6fC!((^`W``([IAf6o. - - - - -",
"- -  - - -- o=fcMHI!!!HFMjd<o -- - - - - ",
" - --  -- - -Xo60eklzlkji&,: -- - - - - -",
"- - - -  - - - o%=ttytt<%o-1 - - - - - - ",
"-  - - -- - - -  - ---  --- - - - - - - -",
" --  --  - - ---- -   -  - - - - - - - - ",
" - - - -- -  -   --  -  -  --  -- - - - -",
"                                         ",
"                                         ",
"                                         ",
"                                         ",
"                                         "
};
