/* XPM */
static char *close_pressed_xpm[] = {
/* columns rows colors chars-per-pixel */
"41 44 80 1 ",
"  c #36373A",
". c #3C373B",
"X c #36393C",
"o c #3A3A3D",
"O c #671219",
"+ c #6D141B",
"@ c #73151D",
"# c #7B161E",
"$ c #45373B",
"% c #4E363A",
"& c #453A3E",
"* c #4B393E",
"= c #54353A",
"- c #5D363C",
"; c #52393D",
": c #5B383D",
"> c #63363C",
", c #6B353B",
"< c #753239",
"1 c #7B3139",
"2 c #3D3D40",
"3 c #861922",
"4 c #8B1923",
"5 c #941B25",
"6 c #9B1C26",
"7 c #9F1D28",
"8 c #AA1F2A",
"9 c #9C2E37",
"0 c #932F39",
"q c #9A2E38",
"w c #853139",
"e c #8E3039",
"r c #AB202A",
"t c #AC202B",
"y c #B1202C",
"u c #B2202C",
"i c #B6222D",
"p c #B7222D",
"a c #B9222E",
"s c #BC222F",
"d c #A12D37",
"f c #AF2B37",
"g c #A92D37",
"h c #AB2C36",
"j c #AE2C37",
"k c #A02E39",
"l c #A32E38",
"z c #AF2D38",
"x c #B52B37",
"c c #B62A36",
"v c #B72A36",
"b c #B02C37",
"n c #BB2A37",
"m c #BA2B37",
"M c #BD2A36",
"N c #B02C38",
"B c #C22331",
"V c #C42431",
"C c #C92532",
"Z c #CC2533",
"A c #CF2633",
"S c #C12936",
"D c #C32936",
"F c #C02A36",
"G c #C42936",
"H c #C42A36",
"J c #C82935",
"K c #C92935",
"L c #CA2835",
"P c #CF2836",
"I c #D12634",
"U c #D12734",
"Y c #D12735",
"T c #D32735",
"R c #D42734",
"E c #D42735",
"W c #D52735",
"Q c #D72735",
"! c #D82735",
"~ c #D02835",
/* pixels */
"22222222222222222222222222222222222222222",
"22222222222222222222222222222222222222222",
"22222222222222222222222222222222222222222",
"22222222222222222222222222222222222222222",
"222222222o22222222222222222222222X2222222",
"222222222222222X2222222222222222222222222",
"222222222222222222222222222222222222222X2",
"22222222222222222222222222222222222222222",
"22222X2o22222X2222X2222222222222222222222",
"222222222o2o2222X222X22222X22Xo22Xo222222",
"22o22222X2o2X2222222222222222X2X222XX2X2o",
"oo2o2X2X222X222**;->-:-:;*222222X22222222",
"22o2o2222222o2*>wlzmSmNlw,*222o2o2222o22o",
"2o22X2X22Xo2*>wlcSPE!EPHclw>&o2o22X2o2oo2",
"o2oo22X222o*,qHEEEEE!EEEEYHq,*2o2XX222222",
"o2o2o22oX2&,lHEEE!EEEEE!E!EHl,*o2o2o2Xooo",
"o2o22o2oo&,qKQQQEEEEEEEEEEE!Z9,&o2oo2ooo2",
"ooooooooo*0H~QQ~YEEEEEEEYEEERH0*ooooooo2o",
"oooooooo*,jQQQUa88sEEYs88iZE!Ef,*oX2ooooo",
"oooooooo-enQQQZ6##5sZB5#@8ZEEEMe:o2oooooo",
"ooooooXo,gLQQQZ6@+#585#+@6Z!E!Kg<2oo.oooo",
"ooooooXo<nUW~QUr3@@@@@@@48U!!EYm<oXoXoooo",
"oooooooo1HQ~QQAZy3@+++@3yZEEEEYH1oXoooooo",
"ooooooXow~!!QQUWV5@+O+@4BREEEEEY1oXoooooo",
"oXoXoXXowHWQQQUUs4@+++@4aZUE!YRH1oXoooooX",
"ooooooXo<SUQWUAy6#@@+@@#5iU!!!US<.XooXXoX",
"ooo.oXXo<jKQQQK8@+@333@+#6Z!QQ~b<oX oXooX",
"oXoXooXo>qSQQQZ6@@4yai4@@6ZRQQSq>oXoXooXX",
" oo X.Xo=<nQ~QPt55rZ!Pr55tZE~Qb<%oXoo Xoo",
" o oXXoXo=dPQQQZVZZW!~ZZVZ~!QP9:.oo XoX X",
"o  o oX. $<jP!Q~QQR!!E!R!!!!Zg<$XXXX.X oo",
"   o     .=1cPQQ~Q!U~!!~!!E~c1=. o .X o X",
"oo  o   .o.;1jUWQQQ~QQWWWRZj1=..  .  X.X ",
"   o  o   X$=<dcHK~Q!~WKHcd<=.   o XX.X o",
"   .o o   oo.$-<qjFKQZSjq<-$.o o. o  X.. ",
" o  .   o     .%><11ww1<>%      X o X.   ",
"       oo        XXX      ..  o  Xo      ",
" .                                       ",
"     .                      .            ",
"            .                            ",
"                                         ",
"                                         ",
"                                         ",
"                                         "
};
