/* XPM */
static char *hide_active_xpm[] = {
/* columns rows colors chars-per-pixel */
"41 44 122 2 ",
"   c #3B3C3F",
".  c #403F3E",
"X  c #40403F",
"o  c #42403E",
"O  c #4D473B",
"+  c #4A463C",
"@  c #4B473D",
"#  c #4E483A",
"$  c #4E493C",
"%  c #564D37",
"&  c #574E37",
"*  c #534A38",
"=  c #544C38",
"-  c #554D3B",
";  c #574E3A",
":  c #574F3A",
">  c #584F38",
",  c #595038",
"<  c #5D5238",
"1  c #5E5338",
"2  c #625436",
"3  c #695933",
"4  c #6A5A32",
"5  c #6D5C33",
"6  c #695934",
"7  c #6B5B35",
"8  c #6B5C35",
"9  c #625639",
"0  c #695B38",
"q  c #695B39",
"w  c #6C5D39",
"e  c #705E33",
"r  c #756233",
"t  c #766232",
"y  c #726034",
"u  c #7B6532",
"i  c #393B41",
"p  c #3B3C40",
"a  c #3B3D40",
"s  c #393C43",
"d  c #3B3D43",
"f  c #3F3F40",
"g  c #3E3F42",
"h  c #3F4043",
"j  c #414140",
"k  c #404041",
"l  c #82692F",
"z  c #91732B",
"x  c #92762F",
"c  c #99792B",
"v  c #9A7A2A",
"b  c #806830",
"n  c #816930",
"m  c #836C31",
"M  c #866D31",
"N  c #876E30",
"B  c #8A7132",
"V  c #8B7132",
"C  c #937630",
"Z  c #957830",
"A  c #A78228",
"S  c #A7832A",
"D  c #A7832B",
"F  c #B18927",
"G  c #B08928",
"H  c #B48C2A",
"J  c #B38D2C",
"K  c #BB9026",
"L  c #BC9126",
"P  c #BA912A",
"I  c #BC9229",
"U  c #C59725",
"Y  c #C49727",
"T  c #C59826",
"R  c #CD9D26",
"E  c #C2982C",
"W  c #C3982C",
"Q  c #C99C2A",
"!  c #CB9F2C",
"~  c #CB9F2D",
"^  c #D19F26",
"/  c #CEA02C",
"(  c #CFA12C",
")  c #D3A124",
"_  c #D9A524",
"`  c #DAA625",
"'  c #DDA926",
"]  c #DEAA27",
"[  c #D7A92F",
"{  c #DDAB2C",
"}  c #DCAC2F",
"|  c #DEAD2F",
" . c #DFAE30",
".. c #E1AB25",
"X. c #E3AD25",
"o. c #E2AF2C",
"O. c #E8B025",
"+. c #E6B42F",
"@. c #E9B328",
"#. c #EBB428",
"$. c #EDB72B",
"%. c #EAB62D",
"&. c #EBB72F",
"*. c #F3BB2A",
"=. c #F4BB2A",
"-. c #F1BB2D",
";. c #F3BC2E",
":. c #F4BD2F",
">. c #F7BF2E",
",. c #ECB830",
"<. c #F3BE31",
"1. c #F9C12E",
"2. c #F7C132",
"3. c #F6C234",
"4. c #FAC330",
"5. c #FBC433",
"6. c #F8C435",
"7. c #FAC434",
"8. c #FBC636",
"9. c #FAC637",
"0. c #FBC637",
"q. c #FCC636",
/* pixels */
"h h h h h h h h h h h h h h h h h h h h h h h h h h h h h h h h h h h h h h h h h ",
"h h h h h h h h h h h h h h h h h h h h h h h h h h h h h h h h h h h h h h h h h ",
"h h h h h h h h h h h h h h h h h h h h h h h h h h h h h h h h h h h k h h h h h ",
"h h h h h h k h h h h h h h h h h h h h h h h h h h h h h h h h h h k g h h k h h ",
"h h h h h h h h h h h h h h h h h h h h h h h h h h h h h h h h g . g k g g g g h ",
"g h g g h g g g h g g g g g g g h h g g g g g g g g g g h h g g g g g g g g g g h ",
"g g g g g g g g g g g g g g g g g g g g g g g g g g g g g g g g g g g g g g g g g ",
"g g g g g g g g g g g g g g g g g g g g g g g g g g g g g g g g g g g g g g g g h ",
"g g g g g g g g g g g g g g g g g g g g g g g g g g g g g g g g g g g g g g g g g ",
"g g g g g g g g g g g g g g g g g g g d g g g h g g g g g g g g g g g g g g g g g ",
"g g g g g g g g g g g g g g g g d d d d d d p p p g g h g g g g g g g g g g g g g ",
"g g g g g g   g g g g g p g h @ ; 9 0 w w 0 0 9 ; @ h p g g g g g g g g g g g g g ",
"g g g g g   g g   g g g g X $ 5 z G Y R ^ R Y G z 5 $ X p g g   g g     g g g     ",
"g p   g   g g     g p X # 7 x J !  .$.*.=.*.$.{ ! J x 8 # g p g   g g g     g g g ",
"g   g g g g g g g   k $ e S ' -.3.7.8.7.3.8.8.8.3.-.' S e # g g g g g   g g   g g ",
"p g g   g     g p g # r J { :.5.8.8.8.8.8.8.8.q.8.5.:.{ J r #   g   g g g   g g   ",
"g g g     g   g k k 5 D o.7.9.9.8.8.7.7.0.8.8.7.6.6.0.5.+.D e k i g g g   g g   g ",
"    g g g g g g k > c ..<.6.3.7.8.7.7.3.8.0.7.3.6.0.0.0.<.' D ;   g g     g g   g ",
"g g   g   g g   * e E <.5.0.9.7.0.6.3.6.0.0.0.6.0.0.0.0.7.:.E 5 O g i g g g g g   ",
"g   g g   g p g 9 c  .0.6.7.9.9.0.0.0.6.0.0.0.0.0.6.6.0.q.8.[ c 2 g i g g     g g ",
"g g   g g g i g t L &.0.9.9.7.9.6.0.8.7.7.3.6.0.0.6.7.7.8.8.+.K e k k g g g g   g ",
"  g   g p g i g M ) -.0.9.8.9.9.6.0.q.8.6.7.0.0.0.6.3.7.8.8.-.) n . g g     g g   ",
"g   g g p g p k V X.<.0.0.0.9.9.0.0.0.0.6.6.0.0.6.0.7.8.q.q.:.' V g i   g g   g g ",
"g g g   g g p k V X.<.q.0.6.3.7.0.0.0.0.6.0.0.6.6.0.8.7.q.q.:.X.V g i g g   g g g ",
"  g g g   g i g V X.>.q.4.q.9.9.8.8.8.7.0.0.0.6.0.0.6.0.6.0.7...V . i g g g g     ",
"g     g g   p   m _ ;.q.7.7.9.7.7.0.6.8.0.6.q.0.0.6.6.6.0.0.<._ M   i g       g g ",
"        g   i   u Y &.q.6.0.0.7.6.6.8.8.q.6.7.6.0.0.0.7.q.q.&.Y u g i   g g       ",
"  g   g   g p . 3 S  .q.0.9.0.0.0.0.8.8.0.0.8.0.0.0.8.7.q.q.o.c 4   i         g   ",
"      g     p g = l ! 4.q.0.0.0.7.0.6.0.8.6.0.0.8.6.7.q.5.:.! n =   g g       g g ",
"g g     g       . < G O.<.6.0.0.6.6.0.0.q.0.8.6.6.7.7.q.8.O.G >           g       ",
"        g   g   g @ m I &.q.0.0.0.6.0.8.6.0.0.6.6.0.7.q.&.I n @   g g   g   g     ",
"  g g       g     . & m ! &.<.6.q.0.6.0.0.0.6.6.8.q.1.&.Q m % k g       g       g ",
"    g     g     g   . > M I #.1.q.7.q.7.7.8.q.q.q.1.@.P M > . k g     g     g g   ",
"g   g     g   g       k & l H ( o.%.<.7.<.7.<.,. .( G n & .       g     g         ",
"  g           g g g     . @ 2 b D Y _ X.O..._ Y S n 1 @ .       g   g   g       g ",
"      g   g           g i k   * 4 n V Z c C V n 7 * . i i   g g     g       g g   ",
"g   g     g g   g       p     g   . . . k . .   g     g           g   g           ",
"g             g     g g g   g   i i i i i i i   i i   g   g g         g   g   g g ",
"      g g               g           g   g         g         g     g       g       ",
"                                                                                  ",
"                                                                                  ",
"                                                                                  ",
"                                                                                  ",
"                                                                                  "
};
