/* XPM */
static char *hide_pressed_xpm[] = {
/* columns rows colors chars-per-pixel */
"41 44 131 2 ",
"   c #33353B",
".  c #34353B",
"X  c #35363B",
"o  c #36373A",
"O  c #37373A",
"+  c #36373B",
"@  c #37373B",
"#  c #37373D",
"$  c #37383B",
"%  c #37383E",
"&  c #39393A",
"*  c #38393B",
"=  c #39393B",
"-  c #3B3A3A",
";  c #3C3B3A",
":  c #3E3C39",
">  c #3D3C3A",
",  c #393A3D",
"<  c #3B3B3D",
"1  c #3B3B3E",
"2  c #3A3C3F",
"3  c #3C3C3F",
"4  c #3C3D3F",
"5  c #3F3F3E",
"6  c #664A07",
"7  c #6E5008",
"8  c #715208",
"9  c #795809",
"0  c #7A5809",
"q  c #464137",
"w  c #4F4735",
"e  c #444038",
"r  c #44403B",
"t  c #48443B",
"y  c #4B463A",
"u  c #4D4639",
"i  c #544A33",
"p  c #554A33",
"a  c #564C33",
"s  c #534934",
"d  c #544A34",
"f  c #584C32",
"g  c #584D33",
"h  c #514938",
"j  c #534B38",
"k  c #5F5233",
"l  c #5C5035",
"z  c #64542F",
"x  c #6D5B2F",
"c  c #745E2B",
"v  c #705C2F",
"b  c #635431",
"n  c #665632",
"m  c #675732",
"M  c #625434",
"N  c #695831",
"B  c #6D5B30",
"V  c #796129",
"C  c #7B6229",
"Z  c #7B6329",
"A  c #7E6428",
"S  c #7F6528",
"D  c #373940",
"F  c #393B40",
"G  c #3C3D40",
"H  c #3D3D40",
"J  c #3D3E41",
"K  c #825F0A",
"L  c #835F0A",
"P  c #85610A",
"I  c #89630A",
"U  c #8E670B",
"Y  c #9A6F0B",
"T  c #AB7C0D",
"R  c #AF7F0D",
"E  c #A17B1F",
"W  c #A37C1F",
"Q  c #A67D1E",
"!  c #A77E1F",
"~  c #876A26",
"^  c #8A6C25",
"/  c #806528",
"(  c #826728",
")  c #836829",
"_  c #8A6C28",
"`  c #967423",
"'  c #977523",
"]  c #907125",
"[  c #9A7621",
"{  c #9B7622",
"}  c #9C7721",
"|  c #9D7822",
" . c #A27C21",
".. c #A47C20",
"X. c #B7850E",
"o. c #B8850E",
"O. c #BB880E",
"+. c #AB811D",
"@. c #AC811C",
"#. c #AE821C",
"$. c #B1851B",
"%. c #B2851B",
"&. c #B3861B",
"*. c #B4861B",
"=. c #B98918",
"-. c #B9891A",
";. c #BF8D18",
":. c #C08B0E",
">. c #C48E0E",
",. c #C68F0F",
"<. c #CA920F",
"1. c #CC940F",
"2. c #DB9E0F",
"3. c #DC9F0F",
"4. c #C08E17",
"5. c #C28F17",
"6. c #C69115",
"7. c #C79215",
"8. c #CD9613",
"9. c #CF9713",
"0. c #C89315",
"q. c #C99315",
"w. c #D09813",
"e. c #D39912",
"r. c #D69C11",
"t. c #D79C11",
"y. c #DA9E10",
"u. c #DC9F10",
"i. c #DCA00F",
"p. c #DEA10F",
"a. c #DDA010",
/* pixels */
"J J J J J J J J H H H H J J J J J J J J J J J J J J J J J J J J H H H J J J J J J ",
"J J J J J J J J H H H H J J J J J J J J J J J J J J J J J J J J H H H H H J J J J ",
"J J J J 4 J J J H H H J H H H H H H H H H H H H H H H H H H H H H H J J H H H H H ",
"J 4 4 4 J J 1 J H H H 3 H H H H H H H H H H H H H H H H H H H H H H H 4 H H H H H ",
"J 3 J 3 J H H H 3 J 3 J J J J 4 H H J 3 3 J H H H H 3 J H H H H 1 J J J 2 J G G H ",
"3 J 3 H 3 H H H J 3 J 3 J 4 4 J H H J J J 3 H H H 3 J H H H H H J J J 1 J J J G H ",
"J 3 H H H H H H J J 3 J J 4 2 J H J J J 3 J 3 H H H J J H H H H J J J 2 4 J G G H ",
"3 J H H H H 3 J 3 J 1 3 J J J J H J J J J 3 4 J H H 3 J 1 H H H 1 J 4 J G 4 G G J ",
"J J 3 J 4 J 4 J 1 J 1 J J 2 4 1 J 1 1 J J 1 1 J 3 3 J G G G 1 G G G G G G G G G G ",
"3 3 J 3 4 4 2 4 J 1 4 1 4 4 4 J 1 J 1 J 1 J 1 J 3 3 1 G 1 H 1 G 1 G 1 G G G G G 1 ",
"1 H 3 1 4 2 2 4 G 1 1 1 2 4 2 2 1 D D D D D D D 3 1 H 1 1 G H G G 1 G 1 1 G 1 G G ",
"G H 1 1 2 2 4 2 1 2 G 4 2 2 4 t j a l m m m M l h t 3 1 D 1 1 1 1 G 1 G 1 G G 1 G ",
"1 G G # G 1 2 2 G 1 4 1 2 4 y N _ ..*.5.5.;.*. ._ N u 4 3 3 3 3 G 2 1 2 D G G 1 1 ",
"G 1 1 G G G 2 2 1 G 4 4 u N _ W -.0.r.y.a.y.t.6.-..._ m u 3 1 1 1 2 2 G 2 1 1 G 1 ",
"1 G 1 G % % G G G G 2 u B | 0.t.y.y.y.y.y.y.y.y.y.t.q.} B u 1 G 1 G 1 J 2 4 G 1 1 ",
"1 1 1 1 G G 2 1 1 1 y x ! 0.y.i.y.y.y.y.y.y.y.y.u.u.y.q.! x u 1 1 1 1 1 1 1 1 1 1 ",
"1 1 1 1 1 1 1 1 1 r x | 9.i.y.y.y.y.y.y.y.y.y.y.y.y.y.a.8.} B 4 1 1 1 2 $ 4 4 - G ",
"1 1 1 1 1 1 # 1 1 s ' q.y.y.y.y.y.y.y.y.y.y.y.y.y.y.y.y.y.q.' s 1 1 % 2 1 2 1 1 1 ",
"1 + 1 1 1 1 1 1 y B &.u.y.y.y.y.y.y.y.y.y.y.y.2.y.y.y.y.y.y.*.B y 1 % 1 - 2 2 1 $ ",
"1 1 1 # G # 1 1 k ] 5.y.y.y.y.y.y.y.y.y.y.y.y.2.y.y.y.y.y.y.5.] k 2 % 1 2 $ - 2 J ",
"- + 1 1 - 1 # 1 x @.8.y.2.y.y.a.y.a.a.i.i.a.i.p.a.a.a.2.y.a.8.+.x 1 % 1 2 - 2 $ + ",
"1 1 1 - 1 1 # G C 5.r.y.2.r.<.>.>.5.>.>.>.>.>.>.,.:.<.t.y.y.t.;.C 1 # 1 $ 2 $ 2 4 ",
"1 $ 1 + 1 $ 1 4 A 8.y.y.y.:.Y I L L L L P L L L P I Y :.y.a.y.q.) 1 1 - 2 - 2 - - ",
"1 1 1 1 1 1 # 4 / 9.a.y.y.o.P 7 6 6 6 6 6 6 6 6 6 8 P o.y.y.y.9./ 1 % 2 $ 2 $ 2 1 ",
"# 1 % - G $ % 1 / 9.2.2.2.o.U 9 8 8 8 8 8 8 8 8 8 9 U O.y.y.y.w.A 2 % 1 $ 1 - % o ",
"$ 1 1 1 + 1 % 1 A 6.r.2.y.1.o.R T T T R T T T R T R o.1.y.a.r.6.A ; % 1 1 % % 1 ; ",
"% + 1 $ 1 1 $ $ x &.w.y.y.y.y.y.y.y.y.y.y.y.y.y.y.2.y.y.y.y.8.&.v - % $ $ % 1 2 - ",
"- 1 + % $ - % $ m { q.u.u.y.u.u.u.y.u.u.a.y.y.y.y.a.y.y.y.y.6.{ b $ $ 1 $ 1 $ $ + ",
"+ 1 % $ $ 1 $ $ s C -.y.y.y.y.y.y.y.y.y.y.y.y.y.y.y.y.2.a.y.&.C w $ - $ + - + + + ",
"$ - $ 2 % $ $ 1 > a W r.y.y.y.y.y.y.y.y.y.y.y.y.y.y.y.2.y.t. .a 1 1 1 + 1 + 1 1 - ",
"% $ $ $ $ % $ $ + e C &.w.i.y.y.y.y.y.y.y.y.y.y.y.y.2.3.w.@.C e $ $ + 1 + $ # - + ",
"- $ $ - $ - $ $ + - s A -.y.y.y.y.y.y.y.y.y.y.y.y.y.r.y.-.A s ; $ $ $ - $ $ O - O ",
"$ $ - $ - + - + - + > p / ! 3.3.3.3.3.2.2.2.2.3.3.3.e.@.A p ; - + + $ $ + O + - + ",
"$ $ $ $ + - + O O - + ; p c ! 5.7.9.t.2.3.t.t.9.7.=.W C s ; + + - + - $ - - - + - ",
"$ $ $ $ $ $ + + # - + - ; q f c [ &.5.1.e.9.7.&.[ C p q ; - + + + - + - O + O - + ",
"$ $ $ $ $ $ $ - $ $ + O O O O s z c / ~ ^ ~ / c z w - - + + - - $ + + + - + + O + ",
"$ $ O O O - O O O + - O O O - + : O : - O : : O + - O O - + + O $ $ + + o O O O + ",
"$ $ O O o + O O - + + O O O O O O .     + . . O + + O O + + O O $ $ - O O O O O + ",
"$ $ + O o O O O + + O O O O O O O O O O o o O O + o o O o o o O $ + + O O O O O O ",
"+ + O O o O O O + + O O O O O O O O O o - o O O o o O O o - O O + + O O O O O O O ",
"o o o o . O O O + O O O O O O O o o O o O O o O o o o o o o o o O O O O O O O O O ",
"o o o o O O O . O O o O O O O O o o o o o o o o o o o o o o o o . O . o O O O o O ",
"o o o o O . O O O + o + O . O + o o o o o o o o o o o o o o o o O O + o O O + + O ",
"o o o o o o . O O O + + O o o + o o o o o o o o o o o o o o o o . O O O + . + O O "
};
