/* XPM */
static char *hide_prelight_xpm[] = {
/* columns rows colors chars-per-pixel */
"41 44 83 1 ",
"  c #3B3C3F",
". c #403F3E",
"X c #755C19",
"o c #41403F",
"O c #4B463C",
"+ c #4D483B",
"@ c #564D37",
"# c #544C39",
"$ c #584F38",
"% c #5C5238",
"& c #625535",
"* c #6B5A33",
"= c #625639",
"- c #6B5C39",
"; c #705E33",
": c #746133",
"> c #7B6532",
", c #3D3E41",
"< c #3F4043",
"1 c #404040",
"2 c #82661C",
"3 c #8C6E1E",
"4 c #826A2F",
"5 c #8C712F",
"6 c #967620",
"7 c #9B7A21",
"8 c #92752D",
"9 c #9A792A",
"0 c #836B30",
"q c #8B7132",
"w c #937630",
"e c #957830",
"r c #A38023",
"t c #A5822A",
"y c #AF892B",
"u c #B18A26",
"i c #B28C2B",
"p c #BB9026",
"a c #BC9229",
"s c #C59726",
"d c #C59826",
"f c #CE9D26",
"g c #C49A2B",
"h c #CA9E2C",
"j c #D19F26",
"k c #D3A124",
"l c #D9A525",
"z c #DEAA26",
"x c #D3A62D",
"c c #DDAD2E",
"v c #DFAE30",
"b c #E3AD25",
"n c #E1AE2B",
"m c #E9B226",
"M c #EBB529",
"N c #EBB62D",
"B c #ECB72D",
"V c #F5BC2A",
"C c #F1BB2D",
"Z c #F3BC2E",
"A c #F4BD2F",
"S c #F7BF2E",
"D c #E1B131",
"F c #E3B331",
"G c #E8B732",
"H c #EAB933",
"J c #ECB830",
"K c #F3BE31",
"L c #F2BF34",
"P c #F3BF34",
"I c #F9C12E",
"U c #F7C132",
"Y c #F6C234",
"T c #FAC330",
"R c #FBC433",
"E c #FBC533",
"W c #FCC532",
"Q c #F9C435",
"! c #FBC635",
"~ c #FAC536",
"^ c #FBC637",
"/ c #FCC635",
"( c #FEC937",
/* pixels */
"<<<<<<<<<<<<<<<<<<<<<<<<<<<<<<<<<<<<<<<<<",
"<<<<<<<<<<<<<<<<<<<<<<<<<<<<<<<<<<<<<<<<<",
"<<<<<<<<<<<<<<<<<<<<<<<<<<<<<<<<<<<<<<<<<",
"<<<<<<1<<<<<<<<<<<<1<<<<<<<<<<<<<<<<<<<<<",
"<<<<<<<<<<<<<<<<<<<<<<<<<<<<<<<<<<<<<<<<<",
",<<,<,,<<<,<<,<<<<,<,<<<<<,<<<<,<<,<<,<<<",
"<,,<<,<,<,<,,<<,,<,<<,<,,<<,<<,<<,<,,<<,<",
",<<,<<,<,<,<<,,<<,<,,<,<<,,<,,<,,<,<,<,<,",
"<,<,,<,<,,<,<,<,,,,,,,,,,<<,<<,<,<,<,<<,<",
",<<<<,<,<<,<,<,<<,,,,,,,<,,<,<<,<,<,,<,<1",
"<,,<1<,1<<<,<,<,,,,,,,,,,,,<,<,<<<,1<<<<,",
",<,,,,<,,,,<< <O=1-----=@O<,,,<,,,,,,,,,<",
",,,,,<<,,,,,,1+-eisfjfsu8-+o,,,,,,,1,,<,,",
",,,,,,,,,,,1+-wixDBCVCBchiw*+<,,,,,,,,,,,",
",,,,,,,,,,,+;tbCLQ!!Y!!!UCzt;+,,,,,,,,,,,",
",<,,,,,,,1+:icZE!!!!!!!!/EAci:+1,,,<,,,,,",
",,,,,,,,,1;tnT^Q!!!^^Y^Q^Q^Tct;1,,,,,,,,,",
",,,,,,,,,#tbK!Q^^^^Q!Q^^Q^Q!Kzt$,,,,,,,,,",
",,,,,,,,+;aK!!!Q!^Q^!^!^^Y^Q!Ag-+,,,,,,,,",
",,,,,,,,=9v!^Q^^^^YQ^!^^Q^^^QYv9&,,,,,,,,",
",,,,,,,,:pB/^^^(^^^(((^(((^!!!Dp;,,,,,,,,",
",,,,,,,,0kA^/PGDDDDDFDDDDDGL!!Ck0.,,,,,,,",
",,,,,,,,qzK//vi76666666667uv!!Kbq,,,,,,,,",
",,,,,,,1qbT!/x7XXXXXXXXXX27x//Ab0,,,,,,,,",
",,,,,,,,qbC!!v762222222226rv^!Kb5.,,,,,,,",
",,,,,,, qlC!/FxhhgggggggggxG!^Cl0.,,,, ,,",
",,, , , >sBQ/^!^Q!!^!!!^!Q^Q!!Gs;.,,,,,, ",
",,,, ,, ;9vQ^^^^^^^^^^^^!!^^!Qvt& , ,,,  ",
", , , , @4hTQ!!Q!!Q^^Q^^^Q!!QIh4@,, , , ,",
" , , , ,.%uMQ!Q^Q!^QQ^QQQ!!/KMy$   , , , ",
", , , , ,O0aNE!^^QQ^^QQ^^Q/WNa4O ,, , , ,",
" , , , ,,.#0hBLQ!Q^QQQ^^QQLMh0@,,, , , , ",
", , , , , .$0amS//^/!^^^/KMa4@. ,, , , , ",
" , , , , ,, $0uxFJKTTKKBDhu4@.,,  , , , ,",
" ,,,, , , , .+%07dlbbbls90$+  ,, , , , , ",
", ,  , , , ,,  #*005eeq0*#.,,,  , , , , ,",
" ,, , ,  , ,,  ,        .., ,  , , , , , ",
",  , , ,, ,  , ,,,,,,,,,,, , ,, , , , , ,",
"  , , ,    ,,  ,,  ,    ,, , , , , , , , ",
"                        ,,               ",
"                                         ",
"                                         ",
"                                         ",
"                                         "
};
