/* XPM */
static char *maximize_pressed_xpm[] = {
/* columns rows colors chars-per-pixel */
"41 44 83 1 ",
"  c #37373A",
". c #39363C",
"X c #37393B",
"o c #3A3A3D",
"O c #095E0F",
"+ c #09610F",
"@ c #0A6510",
"# c #0A6A10",
"$ c #0B7612",
"% c #0C7C13",
"& c #324D37",
"* c #354439",
"= c #38453C",
"- c #364A3B",
"; c #38493C",
": c #2E5E33",
"> c #315236",
", c #315B37",
"< c #345439",
"1 c #296F2F",
"2 c #27752E",
"3 c #28742F",
"4 c #267D2E",
"5 c #287D2F",
"6 c #2E6534",
"7 c #2B6B31",
"8 c #306136",
"9 c #297130",
"0 c #3D3D40",
"q c #0D8214",
"w c #0D8915",
"e c #0F9517",
"r c #0F9917",
"t c #0F9C18",
"y c #109D18",
"u c #10A419",
"i c #11AD1B",
"p c #12B51C",
"a c #12B91D",
"s c #16B81F",
"d c #14BB1F",
"f c #12BC1D",
"g c #13BF1E",
"h c #14BD1F",
"j c #1F9427",
"k c #1D9B26",
"l c #1E9B27",
"z c #1D9D26",
"x c #1D9E26",
"c c #1F9628",
"v c #25832C",
"b c #218B29",
"n c #24882B",
"m c #228C29",
"M c #228D29",
"N c #228C2A",
"B c #228D2A",
"V c #209228",
"C c #209328",
"Z c #219229",
"A c #209629",
"S c #1AA723",
"D c #1CA224",
"F c #1CA126",
"G c #1BA424",
"H c #1AA624",
"J c #1CA525",
"K c #19AB23",
"L c #18AE22",
"P c #1AAA24",
"I c #19AD24",
"U c #17B221",
"Y c #17B321",
"T c #17B421",
"R c #18B022",
"E c #15BC20",
"W c #13C21D",
"Q c #12C31D",
"! c #13C01E",
"~ c #13C11E",
"^ c #13C31E",
"/ c #12C41D",
"( c #13C41F",
/* pixels */
"00000000000000000000000000000000000000000",
"00000000000000000000000000000000000000000",
"0000000000000000000000000;00000000000000;",
"00000000000000000000000000000000000000000",
"000000000o00000o000000000000000000o0o0000",
"00000000000000000000000000000000000000000",
"000000000000o0000000000000000000000000000",
"0000000000o00000000000000000000000o000000",
"000oo000o00o00o0o00000o0000000.000o0000o0",
"=0o000o00oo0o00o00o0oo0o00000000o00ooo0oo",
"0o0o0o0o0o0o0o00o00.000000000o.00o0o00o00",
"o0o0o0o0o0o0o00=-<,,,,,<<;00o0o0o0o00o0oo",
"00o0o00o0oo0o=;65ZFPIPFZv8;00o00o0ooo0o00",
"0o0o0oo00000;,5cJTg^^^ERJA58=o0o0o000o0oo",
"o000o0o0o0o;6BYE^Egggg/~EEYB6;o0o00oo0000",
"oooo0ooooo-7cY~/^^(g^g^~//~YA7-o0oo0ooooo",
"ooooooooo=6NE/~~^^g^~///h/~/EN6=ooo0oooo0",
"o0ooo0ooo-nEh~~~^g^^~~h/~~~/gRn-ooooooooo",
"o0o0o00o*7z~~h/~~hiyttetup~h~(z6=oooooo0o",
"oooooooo,vL~/~h/hpy$#++#%th/~~Kv,ooo0oooo",
"oooooo.o6kY/~~~hphie$++++e~~~~EC6oooooooo",
"oooooo.o7PEh~/hiupfpe$+O+qh/~~hK1oooo ooo",
".ooooooo9T~/~~gequ~hpt%++wh~/h~Y3oo ooooo",
"oooooooo2E/~/~gq#qua~pe%+w~~~/~s3oooooooo",
"o.oooooX3T/~~/hw@#quffpr%wh/~/~s3 .ooooo ",
"o.Xoo.oo3LE~h/hwOO#qthhptuh/~hhL3o.ooX.oX",
".o..oX..7DEh/^hw@OO@quphpp~/(~az7o.o.X o ",
"XXXo..oX:BL^(^he#@O@#%uph~/hh/LB:o..ooo .",
"oooXXXoX<9H/~~~ueqqq%wuhh~~~/~D3>..oo..o.",
".XX.o..oX>jE~~~hfpfpphh//~~~~hj>XooXXoXX.",
".XXoXX.X *9zE//(/~Q/^^/~h///ak7*..oX.X.XX",
"X..X..X.oX>9HEh//h/~g^g~~~h~F2>X XX.X.XX.",
".X.XX.XXXXX>2zE~~~h~/g^g^~sz3>XX.X..XX X ",
"X.X...X.X..X>9jSYs~~^^gsTJA3&*..X..X.X...",
"..oX.XX. XXXX*>9NtipETRkB1>*X.. ...XXX.X.",
"XXXXX.X....XX X&:1244433:&X  X.XXX.X.XX.X",
"X XX XX   o.X           XX.....XXX.X .. X",
". . . .  XX.  X.            XX  XX X    X",
"  .   .                     X    .     X ",
" X    X                        X     . X ",
"                                         ",
"                                         ",
"                                         ",
"         X                               "
};
