/* XPM */
static char *maximize_inactive_xpm[] = {
/* columns rows colors chars-per-pixel */
"41 44 25 1 ",
"  c #3B3C3F",
". c #3C3D40",
"X c #3D3E41",
"o c #3E3F42",
"O c #3F4043",
"+ c #3F4144",
"@ c #404143",
"# c #414246",
"$ c #434447",
"% c #434548",
"& c #434549",
"* c #444548",
"= c #47484B",
"- c #494B4E",
"; c #4B4C4F",
": c #4B4D4F",
"> c #4C4D4F",
", c #4B4D50",
"< c #4E4F53",
"1 c #4E5052",
"2 c #4F5154",
"3 c #505154",
"4 c #515254",
"5 c #515255",
"6 c #515356",
/* pixels */
"OOOOOOOOOOOO@OOOOOOOOOO@OOOOOOOOOOOOOOOOO",
"OOOOOOOOOOOOOOOOOOOOOOOOOOOOOOOOOOOOOOOOO",
"OOOOOOOOOOOOOOOOOOOOOOOOOOOOOOOOOOOOOOOOO",
"OOOO@OOOOOOOOOOOOOOOOOOOOOOOOOOOOOOOOOOOO",
"OOOOOOOO+OOOo++oOOOOOOOOo@o@OOOOOOOOOOooO",
"oooooooooooooooooooOooooooooooooooooooooO",
"ooooooooooooooooooooooooooooooooooooooooo",
"ooooooooooooooooooooooooooooooooooooooooo",
"ooooooooooooooooooooooooooooooooooooooooo",
"ooooooooooooooooooooooooooooooooooooooooo",
"oooooooooooooooooo@oooooooooooooooooooooo",
"ooooooooooooooo@@@@&&@&@@$ooooooooooooooo",
"oooo oo oooooo@&,,<<<<<,=&@oooo.oo   oooo",
"oo o oo o ooo@=;<<5<5522<<&&oo.oo oooo o ",
"o o oooo  oO&-152555555522<-&oooooooo o o",
" oooo  oooO&-155555555555552-$oo o  ooo o",
"O O  O ooO&;1555555555555555<-&ooo  oo oo",
" O OO o oO;1555555555555555551-@ oooo oo ",
"O o  OooO$,5555555555555555533>$@ooooo  o",
" OO O  o@=15555555555555555535<-@o   oooo",
"O O o oo&,255555555555555555553;*ooo ooo ",
" O O oo &1555555555555555555555<&o ooo  o",
"O O oooo=25555555555555555555551&Oooo ooo",
" O O O O&55555555555555555555555*o  oo o ",
"ooo OO O=22555555555555555555555&oooo  oo",
"   o  o =15555555555555555555552&oo  oo  ",
"o ooo   $;535555555555555555552,&o    oo ",
"      o $;155555555555555555522;@o oo   o",
"o     o O=;5555555555555555555,&O      o ",
"  ooo   oO;1555555555555555552-@o o oo   ",
" o  o o  @&;3555555555555555<<&@ o o    o",
"  o   o  o@=115555555555553<<&@o o   oo  ",
"oo      o oO=;5555555555515>&@oo   o o   ",
"   oo o o o O&;111555555<<;&oo   o   o oo",
"   oo      ooo+&-<215<2<-&@Oo   o o   o  ",
"oo    oo oo  oo+&&&===&*@Oo   oo  o o    ",
"    o    oo   o   oo o  Oo  o    oo  o oo",
" o oo o     o o o        oo o o    o   o ",
" o    o o  o o     oo     o   o o    o   ",
"                                         ",
"                                         ",
"                                         ",
"                                         ",
"                                         "
};
