/* XPM */
static char *maximize_prelight_xpm[] = {
/* columns rows colors chars-per-pixel */
"41 44 79 1 ",
"  c #3B3C3F",
". c #3A423F",
"X c #374C3C",
"o c #394A3E",
"O c #35533A",
"+ c #39523D",
"@ c #355B3B",
"# c #1C7424",
"$ c #1E7C26",
"% c #316437",
"& c #35663C",
"* c #326B38",
"= c #2F7736",
"- c #2F7A36",
"; c #307337",
": c #307C38",
"> c #3D3E41",
", c #3F4043",
"< c #1F8128",
"1 c #208429",
"2 c #238E2C",
"3 c #24932E",
"4 c #25982F",
"5 c #2C8435",
"6 c #2B8D33",
"7 c #2F8938",
"8 c #318239",
"9 c #308838",
"0 c #2D9536",
"q c #269B30",
"w c #2A9934",
"e c #27A132",
"r c #29A534",
"t c #2AAC35",
"y c #2EA438",
"u c #27B433",
"i c #28B433",
"p c #27BC34",
"a c #2DB539",
"s c #2EBC3A",
"d c #27C533",
"f c #27CC34",
"g c #29CC35",
"h c #2DCD3B",
"j c #30C63E",
"k c #31CB3F",
"l c #28D135",
"z c #2BD738",
"x c #2BD639",
"c c #2DDB3B",
"v c #2DDB3C",
"b c #31D53F",
"n c #30D93E",
"m c #30DB3E",
"M c #2DE23D",
"N c #2FE33E",
"B c #32CE40",
"V c #33D342",
"C c #31DA40",
"Z c #35D843",
"A c #31DF40",
"S c #35DA44",
"D c #36DF46",
"F c #31E140",
"G c #34E243",
"H c #32E642",
"J c #37E046",
"K c #37E347",
"L c #35E645",
"P c #36E646",
"I c #38E547",
"U c #35EB45",
"Y c #37E947",
"T c #36EA46",
"R c #38E748",
"E c #38E848",
"W c #38EB48",
"Q c #39EC49",
"! c #3AED4A",
/* pixels */
",,,,,,,,,,,,,,,,,,,,,,,,,,,,,,,,,,,,,,,,,",
",,,,,,,,,,,,,,,,,,,,,,,,,,,,,,,,,,,,,,,,,",
",,,,,,,,,,,,,,,,,,,,,,,,,,,,,,,,,,,,,,,,,",
",,,,,,,,,,,,,,,,,,,,,,,,,,,,,,,,,,,,,,,,,",
",,,,,,,,,,,,,,,,,,,,,,,,,,,,,,,,,,,,,,,,,",
">,>,,,,,,,>,>,,>,,>,>,,>,>,,,,,,>,,,,>,,,",
",>>,>,,,,>,>>,>,,,,,,>,,>,,>,,,,>,,>,>>,,",
">,,>,>,,>,>,>,,,,,,>>,>,,>,,,,,,,>,,>,,>,",
",,>,>,>,,>,>,>,>>,,,>,,,,>,>,,>,>,,>,>>,,",
">,,>,>,>>,>,>,>,,>,,>>>>,>>,,>,>,>>,>,,,,",
">,>,,,>,,>,,,>,,>>,>,>>>>,,,>,>,>,,,,>,>,",
",>,>>>,,>,>>>,,Xo+&&&&&@,,,>,>,>,>>>>,>,>",
">>,>>>>>>>>>>,,*8rupdpue5%X,>>>>>>>, ,,>>",
">>>>>>>>>>>,X%9yskvNNcchsy7&o,>>>>>>,> > ",
">>>>>,>>>,>o*wgcLLWEE!EELcgw*X>>>>>> ,>>,",
">>>>>>>>>>o*yhFTE!!!!E!!!TNhy*X,>>>>, >>>",
">>>>>>>>>,*whLRQ!QQQE!!!!QQLh0*,>>>>>>>>>",
">>>>>>>>,+0gGQQQRQQR!E!EQRQQGg0O>>>>>>>>>",
">>>>>>>>X*acE!RQQRVssassBZEQENa*X >>>>,>>",
">>>>>>>>@6BL!E!ERDs31$#13sRQ!Tj6@>>>>>>>,",
">,>>>>>>=rnE!RERDDVa3###<tR!!!Vr*,>>>>>> ",
">>>>>>>>-dn!!!EVBDRDa2$##rK!E!cd->>>>>>>>",
",>>>>>>,:gH!!ELaqBDRZs3##rR!!!Ff:,>>>>>>,",
">>>>>>>,8lN!E!Rr1qjDEZs3$rG!E!Hf8>>>>>>> ",
">>,>>,> 8fH!E!Kr#$qBDRDs3tK!E!Fg8.>>>>>> ",
">> > > ,-fNE!!Kr##1qjKEZahR!!EFd:,>> >>>>",
" > > >  =inE!!Rt$##$eBDJDJE!EECi*  >> >  ",
"> > > >>%wkE!ERa2$##13jDKE!E!WBw% >  > > ",
" > > > >O=sLEEEBaqqq3rBKR!E!THs;O >> > >>",
"> > > >  @rxR!!LDDDDDKREE!E!LxrO. > > >  ",
" > > > > o-tvT!E!!!!!!!E!!QEvt=o > > >>>>",
"> > > > >.O:snRE!E!EE!E!ERGcs-O,> > >  > ",
" > > > >> .O5txH!!E!!EE!ENxt-O. > >  > , ",
"> > > >  >>.O-yskCFLTFGCBjr;O.>  > >> >  ",
">  > > >  > .o@-wuflllfiw;@o  > > >  > > ",
" >> > > >> >  .X%;58775;%O  >> >  >>> > >",
">  > > > > > >    > > >  .> > > ,  > > > ",
" >>  >> > >>> >>>>> > >  > > > >> >>>  ,,",
" > > > >  >  >  >  >     > > > >  >   >  ",
"                                         ",
"                                         ",
"                                         ",
"                                         ",
"                                         "
};
