/* XPM */
static char *maximize_active_xpm[] = {
/* columns rows colors chars-per-pixel */
"41 44 106 2 ",
"   c #3B3C3F",
".  c #3A403E",
"X  c #374B3C",
"o  c #374C3C",
"O  c #384B3C",
"+  c #3A493E",
"@  c #394C3E",
"#  c #34523A",
"$  c #34543A",
"%  c #36563B",
"&  c #39523D",
"*  c #35583B",
"=  c #335C39",
"-  c #335D39",
";  c #365E3C",
":  c #316337",
">  c #316737",
",  c #336539",
"<  c #36643D",
"1  c #316A38",
"2  c #326B38",
"3  c #316E38",
"4  c #316F38",
"5  c #36683D",
"6  c #2F7636",
"7  c #2F7A36",
"8  c #2E7D37",
"9  c #307337",
"0  c #307B38",
"q  c #307D38",
"w  c #3C3B40",
"e  c #3F3B43",
"r  c #3C3C40",
"t  c #3F3C43",
"y  c #3F3D43",
"u  c #3E3F42",
"i  c #3B4140",
"p  c #3C4240",
"a  c #3F4043",
"s  c #2A8532",
"d  c #2F8237",
"f  c #2B8C33",
"g  c #2F8838",
"h  c #318239",
"j  c #308838",
"k  c #2D9536",
"l  c #299832",
"z  c #2B9934",
"x  c #27A132",
"c  c #27A232",
"v  c #2CA135",
"b  c #2BA535",
"n  c #27AC32",
"m  c #28AB32",
"M  c #2AAC35",
"N  c #2DA538",
"B  c #2EA439",
"V  c #27B433",
"C  c #28B433",
"Z  c #27BC35",
"A  c #28BF35",
"S  c #2EB439",
"D  c #2CBA38",
"F  c #2EBB39",
"G  c #2EBC3A",
"H  c #27C132",
"J  c #26C233",
"K  c #27C533",
"L  c #27C633",
"P  c #27C734",
"I  c #27CB34",
"U  c #27CD34",
"Y  c #28CB35",
"T  c #2ACB37",
"R  c #28CD34",
"E  c #2ECC3B",
"W  c #31C63E",
"Q  c #31CD3F",
"!  c #28D035",
"~  c #2BD638",
"^  c #2BD738",
"/  c #2ED13C",
"(  c #2AD838",
")  c #2DDB3B",
"_  c #2DDB3C",
"`  c #31D63F",
"'  c #30D93E",
"]  c #30DE3E",
"[  c #2FE33E",
"{  c #32CF40",
"}  c #31DA40",
"|  c #32DB41",
" . c #32E241",
".. c #34E243",
"X. c #32E641",
"o. c #36E645",
"O. c #36E646",
"+. c #33E843",
"@. c #35EB45",
"#. c #36EA46",
"$. c #38E848",
"%. c #38EB48",
"&. c #38EA49",
"*. c #39EA49",
"=. c #3AEB4A",
"-. c #39EC49",
/* pixels */
"a a a a a a a a a a a a a a a a a a a a a a a a a a a a a a a a a a a a a a a a a ",
"a a a a a a a a a a a a a a a a a a a a a a a a a a a a a a a a a a a a a a a a a ",
"a a a a a a a a a a a a a a a a a a a a a a a a a a a a a a a a a a a a a a a a a ",
"a a a a a a a a a a a a a a a a a a a a a a a a a a a a a a a a a a a a a a a a a ",
"a a a a a a a a a a a a a a u u a a a a a a a a a a a a a a a a a a a a a a u u a ",
"u u u a a u u u u u u u u u u u a a u u u u a u u u u u a a u u u u u u u u u u a ",
"u u u u u u u u u u u u u u u u u u u u u u u u u u u u u u u u u u u u u u u u u ",
"u u u u u u u u u u u u u u u u u u u u u u u u u u u u u u u u u u u u u u u u u ",
"u u u u u u u u u u u u u u u u u u u u u u u a u u u u u u u u u u u u u u u u u ",
"u u u u u u u u u u u u u u u u u u u u e u u a u u u u u u u u u u u u u u u u u ",
"u u u u u u u u u u u u u u u u e e a u e e w e u u u u u u u u u u u u u u u u u ",
"u u u u u   u u u u u u u u u + & ; < 5 < < < ; & + u u u u u u u u u u   u u u u ",
"u u u u u   u u   u u u u   @ , s x C Z H A C x s , @ u u u   u   u u u u u u     ",
"u     u u u u     u u i o , j N F / _ [  ._ _ E F N j , X   w u u u   u     u u u ",
"u u         u u u u   @ 1 z Y ] $.%.$.$.%.%.%.%.o.) R z 1 @ u   u   u   u u   u u ",
"  u u u u u u   u   o 4 N E  .#.$.%.%.%.%.%.%.%.%.%.[ E N 3 o a u   u u u   u u   ",
"  a   a   a a   a . 2 z W O.=.=.%.$.%.%.=.$.=.=.=.$.=.O.W z 2 a u   u u u   u   u ",
"a   a   a w w a a & k ! ..$.=.%.%.%.%.=.$.=.=.$.%.=.=.%. .Y k & u   u   u u u   u ",
"  a   a   a a   O 3 S [ $.%.$.=.=.=.=.=.%.=.=.$.=.=.=.=.$.[ S 3 X   u     u u u   ",
"a   a   a   a   - f W %.$.%.=.=.=.%.$.=.=.=.$.=.=.$.$.=.$.$.W f ; u w u u     u u ",
"  a   a a   a   3 m ` $.%.=.$.$.=.$.$.=.=.%.$.=.=.%.=.=.$.-.' m 3 a   u u     u u ",
"a   a   w     a q H  .-.=.$.=.=.%.=.=.=.$.=.=.=.=.=.%.$.-.-.] H 7 u w u u u u u   ",
"  a   a u u u a h R  .$.=.=.$.=.=.=.=.$.=.=.=.%.=.$.%.%.%.%. .Y h a w     u u   u ",
"a   a   u a   a h ! [ -.=.$.=.=.=.$.$.=.=.$.$.=.=.%.%.%.%.%.X.R h u w u   u u   u ",
"  a a u . w a   h R [ %.-.%.=.%.=.=.=.$.=.=.$.=.%.=.=.%.=.=.| R h a w u   u u u u ",
"w       a   u   q L [ -.=.%.=.=.%.$.=.=.$.$.=.=.=.=.$.=.=.=...K q   w u u     u   ",
"  w a u   u   w 9 V ' %.=.%.%.=.=.$.=.$.=.%.=.%.=.=.$.=.%.%.| C 9         u       ",
"  w       w w w 1 l Q %.%.=.=.%.=.=.=.$.=.=.=.$.$.=.=.$.%.%.Q l : u w u       u   ",
"  u w       w   # 9 F +.=.=.$.=.$.$.=.%.=.$.=.=.%.%.%.%.%.X.F 9 #             u u ",
"      a . a   u . % v ( O.%.=.$.=.=.=.=.=.%.=.$.%.%.%.-.O.~ v %   u u   u u       ",
"u   w .     w u   + 7 M ` O.=.=.=.$.$.=.$.=.%.=.=.=.%.#.' M 9 +       u     u     ",
". w   u   u     u . # q F ' O.%.=.=.$.=.=.=.=.%.=.%.o.) F 7 # .   u       u     u ",
"a     u u         . . % 8 m ^ X.%.%.=.%.%.=.%.-.%.+.~ M 8 % .         u   u       ",
"  w           u   a a . $ 7 N G Q | ..X.X.O. .] { G N 9 # .   u u         u   u u ",
"u   u     u   e e u     . + ; 7 l C P ! ! ! Y C l 7 * +   a u   u   u       u     ",
"  e . w   u   .       a     . O : 7 d j j j h 9 : %                 u   u         ",
"      u     u   a     u       .     a     a       .   u       u   u u     u   u u ",
"a .   a   a         a   a     a                   u   u   u   u       u       u   ",
"  w w         u     . a   w     a         a       a       u     u         u       ",
"                                                                                  ",
"                                                                                  ",
"                                                                                  ",
"                                                                                  ",
"                                                                                  "
};
