/* XPM */
static char *menu_prelight_xpm[] = {
/* columns rows colors chars-per-pixel */
"41 44 43 1 ",
"  c #38393C",
". c #39393C",
"X c #3A393C",
"o c #3A393D",
"O c #3A3A3C",
"+ c #3B3B3E",
"@ c #3B3B3F",
"# c #3A3C3F",
"$ c #3C3C3F",
"% c #3C3C40",
"& c #3D3D40",
"* c #3D3E41",
"= c #3F4043",
"- c #454548",
"; c #454648",
": c #47474A",
"> c #4A4A4B",
", c #4D4E4E",
"< c #4E4F51",
"1 c #4F4F51",
"2 c #515254",
"3 c #525355",
"4 c #545455",
"5 c #565759",
"6 c #5E5F61",
"7 c #606060",
"8 c #646464",
"9 c #69696A",
"0 c #717173",
"q c #7C7C7C",
"w c #7D7E7D",
"e c #7F7F80",
"r c #838384",
"t c #8C8C8D",
"y c #8D8D8D",
"u c #8F8F8E",
"i c #909091",
"p c #939393",
"a c #959595",
"s c #969696",
"d c #989898",
"f c #A3A3A3",
"g c #A4A4A4",
/* pixels */
"=========================================",
"======*-=================================",
"======*==================================",
"=========================================",
"=========================================",
"=========================================",
"=================================*=======",
"=*=*=*=*=*=*=**===*=*=*==*=**=====**=*===",
"*=*=*=*=*=*=*=*==*=**=*=*==*=*=**=**=*=*=",
"=*=*=*=*=*=*=*=**=*==*=*=**=*=*==*==*=*=*",
"*=*=*==*=**=*==*=*=**=*=**=**===*=*==*=*=",
"=*=*==*=*=*==*====*=*==*==*==*=*=*=**=*=*",
"=*==*==*=**=*==**==**=*====***=**=*=*==*=",
"*******==*=****=**=*=*=****=*=*==*=*=**=*",
"***=*************************************",
"*****************************************",
"*****************************************",
"***=*************************************",
"*$*$*************************************",
" **$*$$*$$*$*$**#*****#*#*#*#*#*$*$**$*$$",
"** ***$**$*$*$             **#**$*$**$*$*",
"***$* *$$**$*>2222222222222-#**#*** $*$*$",
"#**#*** *** $5tpiiiiiiiiiat6##$**$ *$**$*",
"*#**$**** *$$5edggffgffgfdw5*#*#$**$*$$*$",
"*#%* $$*$$$$$*-0paaaaaaai0-** *%$$$$$$$$ ",
" *$**$$$$$$$$ $19ruyyyur92% %*%%$$$$$$$$#",
"$*$$$$$$$$$$$$$$-9qqwqq9-  %$%$$$$$$$$$$#",
"*  *$$%  $$$$$  $>47874-* * $% $$$$ $ $$#",
"$$ $ $$ $X$$ $$$  $>,>-XX$$$$%%$$X$$$$ $ ",
"Xo$$ % %X$$X$$XX$$$$$$XX$$$    $X$$X * $#",
"$$$X$$%$X$$$$XX$$$$X $$XX$%$o$ %$$$X *$ #",
"$X$$X $o $$  $$$XX$$ $X$$X  $o$$ $X$$$$ #",
"X$ $ $$%$  $o%$  * $X o $ $$ o$$ $o$ $ *$",
"X  o$ o $ %   o$ #$  $$$ $Xo$X o %Xo$    ",
"o $ XXXXo $o$   # #X$ $    $ $    o XX$ $",
"$$$ $  $ % $$ $%#X#XX $ $% o$$ o%$ $$$   ",
"o  $ $ $$  Xo$ $XX####X#$ $XXXX$ $  $$XX$",
"X$XXX$XX$$ Xo XXX$XX  XX$ XX$ XXX$XXXX$X ",
"X$XXX $XXX$XXX  XXXX   #X $$ $X$XX XX$XX$",
"  X$X  $XXXXX$X$XX#X$$##X XX X XXX$X  X$X",
"O# XXXXXXXX  XXXOOOOXX  XX  XXXOXXXX XooX",
"OXXX XXXXXXX $XXXOXXXX  X$  XXXOXXXX XooX",
"XXXX #XXXXXX  X OXOOXXX XX# XXXOXXXX$XoXX",
"XXOXXXX$XXXXX   OXXOXXXXXX   XXOX XXXXXXX"
};
