/* XPM */
static char *shade_active_xpm[] = {
/* columns rows colors chars-per-pixel */
"41 44 67 1 ",
"  c #39393C",
". c #3A393C",
"X c #3A393D",
"o c #3A3A3C",
"O c #3A3B3E",
"+ c #3B3B3F",
"@ c #3B3C3F",
"# c #3C3C3F",
"$ c #3C3C40",
"% c #3C3D40",
"& c #3E3F42",
"* c #3F3F42",
"= c #3F4042",
"- c #3F4043",
"; c #404042",
": c #404144",
"> c #434347",
", c #444446",
"< c #444548",
"1 c #47484A",
"2 c #48484A",
"3 c #4F4F51",
"4 c #4F4F52",
"5 c #4F5052",
"6 c #505053",
"7 c #515254",
"8 c #535457",
"9 c #545456",
"0 c #585759",
"q c #57585A",
"w c #58595B",
"e c #5A595A",
"r c #5A5B5B",
"t c #595A5C",
"y c #5B5B5C",
"u c #5B5B5D",
"i c #69696A",
"p c #69696B",
"a c #6B6B6B",
"s c #6D6E6D",
"d c #6F6E6F",
"f c #707070",
"g c #727372",
"h c #737273",
"j c #737373",
"k c #757575",
"l c #747576",
"z c #767677",
"x c #777779",
"c c #787879",
"v c #79797A",
"b c #7B7C7D",
"n c #828283",
"m c #858586",
"M c #878687",
"N c #8A8A8A",
"B c #8B8B8C",
"V c #8D8C8C",
"C c #8F908F",
"Z c #919291",
"A c #929292",
"S c #959595",
"D c #989998",
"F c #9A9A9B",
"G c #9B9B9B",
"H c #9F9F9E",
"J c #AAAAA9",
/* pixels */
"-----------------------------------------",
"-------:---------------------------------",
"-----------------------------------------",
"-----------------------------------------",
"-----------------------------------------",
"-----------------------------------------",
"--------------&&-------------------------",
"&&&&&&&&&&&&&&&&--&&&&&&&&&&&&--;#---#---",
"&&&&&&&&&&&&&&&&&&&&&&&&&&&&&&&&-----##;-",
"&&&&&&&&&&&&&&&&&&-&&&&&&&&&&&&--##;-----",
"&&&&&&&&&&&&&&&&&&&&&&&&&&&&&&&&---;-----",
"&&&&&&&&&&&&&&&&&&&&&&&&&&&&&&&&;#-##;#--",
"&&&&&&&&&&&&&&&&&&&&--&&&&&&&&&&&&*&&&&&&",
"&&&&&&&&&&&&&&&&&&-@@&&&&&&-&&&&&&&&O&&&&",
"&&@@@@&&&@&&O&&&@-@-@--@@@-@&@&$$&&&-@O-@",
"&&&&&&&@&&@&&$&@-@@OOO@-@-$&@&&&&;O&@-&&&",
"O&&&&&&#&O$&$&&&@@<9q9<$$-=@=@=@&&##&&&@&",
"&&&OO#&&&&&&&&O&$@qBGBt$$$@=@=@=#&&&&@&&&",
"O&&&&&O&&&&O#&#O-rbHJHbt-@-=O=$=#&&#@@&&O",
"O&$O&O&&OO#&##&&7nGGGGGn5-@@$O=O&##&#&@@&",
"&O&O&&OO&O&$$O&0vZDSSSDVxq%===O%&OO@&###O",
"O&O&O&O&&O&O&:3lAAZZCZZZZl5-OOO=&@&@##&#&",
"&O&O&OO&O&O&O9xMVBBBBNNNBml5%O%%&$#OO&#&O",
"O&O&$&OO&O&O&3isppppiiiipap5%%%%O@&&O&#&O",
"&OO&O##&####&*,,<,,,,,,:<-----@@@@@##### ",
"$OO&O$OO#####1eututtteeetrq1@@@@@@@@###$$",
"$@@&$$$$$#$$O3hjhhjjjjgglzs5OO@O@@@$#O#$$",
"O@OO#O#O.O#OO3pfdsssssssssp5OOO@@$ $O&OO ",
"OO$OOO#OO.#.#100ueeeeeeeee01$OO$ $ $ % %O",
"##.OO#O.#.#OO#******&&&&***#OOOO $$ % % O",
"#..#.O$.#OO#OOO..OOO...O..O.OOO$$   $$ %O",
"O##O$#.$O.##OOOOO##OOOO#O##OOOOO$ $$$ % $",
"..O.OOOOOO$X$$ $OO.OOO $ $    $ $  $$$X$ ",
"#OOOO.OO$...X $ OOO..O$ $ $ X$ $ $      $",
"OOOO.$.OOOO.X$X OOOOO.OX$ $X$X$  $$  $   ",
".OOOO.O.O..$ X$ .O...O.$XX$   X$$  $ $$  ",
"O..O.O.O  $ X$X$.O.O.O.O     $    $    $$",
".OO.O.OO  X$    OOO.O.O.$ $ $  $$    $  X",
"OO.O.O.O $  X X$.O O..OOX $ X    $   $ $ ",
".O......   XXXX ..OO..OOX   XX           ",
"XO..O O   O....O. ...OO   OO...O       X$",
" ...O     ....XX   O..    X...       XXXX",
" ...      O.      . ...   ....       XXXX",
"..O..   OO..O    ..X..    ....O      XXXX"
};
