/* XPM */
static char *stick_inactive_xpm[] = {
/* columns rows colors chars-per-pixel */
"41 44 69 1 ",
"  c #39393C",
". c #3A393C",
"X c #3A393D",
"o c #393A3D",
"O c #3B3B3C",
"+ c #3A3B3D",
"@ c #3B3B3F",
"# c #3B3C3F",
"$ c #3C3C3E",
"% c #3C3C3F",
"& c #3B3D40",
"* c #3C3C40",
"= c #3E3E40",
"- c #3F3F41",
"; c #3E3F42",
": c #3F3F43",
"> c #3F4043",
", c #444445",
"< c #444446",
"1 c #464749",
"2 c #484848",
"3 c #4A4B4B",
"4 c #4D4D4E",
"5 c #4C4D4F",
"6 c #505052",
"7 c #505152",
"8 c #535254",
"9 c #535354",
"0 c #535355",
"q c #535356",
"w c #565657",
"e c #58585A",
"r c #5E5E5F",
"t c #616161",
"y c #606062",
"u c #606162",
"i c #636363",
"p c #616264",
"a c #636364",
"s c #646566",
"d c #666666",
"f c #666668",
"g c #6B6B6B",
"h c #6B6B6C",
"j c #707170",
"k c #737374",
"l c #757576",
"z c #777777",
"x c #797979",
"c c #7B7B7B",
"v c #7C7B7C",
"b c #7D7E7D",
"n c #7F807F",
"m c #7F7F80",
"M c #808180",
"N c #828182",
"B c #838283",
"V c #838483",
"C c #848384",
"Z c #888888",
"A c #8B8B8B",
"S c #8E8E8E",
"D c #908F8F",
"F c #8F8F90",
"G c #909090",
"H c #919191",
"J c #979797",
"K c #999999",
"L c #9D9D9D",
/* pixels */
">>>>>>>>>>>>>>>>>>>>>>>>>>>>>>>>>>>>>>>>>",
">>>>>>>>>>>>>>>>>>>>>>>>>>>>>>>>>>>>>>>>>",
">>>>>>>>>>>>>>>>>>>>>>>>>>>>>>>>>>>>>>>>>",
">>>>>;;,>>>>>>>>>>>>>>>>>>>>>>>>>>>>>>>>>",
">>>>>>>>>>>>>>>>>>>>>>>>>>>>>>>>>>>>>>>>>",
">>>>>>>>>>>>>>>>>>>>>>>>>>>>>>>>>>>>>>>>>",
">>>>>>>;>>>>>>>>>>>>>>>>>>>>>>>>>>>>>>>;>",
";;;;;;;;;;;;;;;;>>;;;;;;;;;;;;;>;;;;;;;;>",
";;;;;;;;;;;;;;;;;;;;;;;;;;;;;;;;;;;;;;;;>",
";;;;;;;;;;;;;;;;>;;;;;>;;;>;;;;;;;;;;;;;>",
";;;;;;;;;;;;;;;;;;;;;;;;;;;;;;;;;;>>;;;;;",
";;;;;;;;;;;;;;;;;;;;;;;;;;;;;;;;>>&&;;;;;",
">;;;;;;;;;;;;;;;;;;;;;;;;;;;;;;;>>&>;;;;;",
";;;;#;;;;;;;;;;;;;;;;;&;;;;;;;;;&>>>;;;>;",
";@;;;;&&;;&;&;;&;;&;;;;;&;&;;#;;#>>##>;#;",
";;;#&;;;&;;&;&&;&&;&&;&&;&;;&;;@>#&;;#;#;",
";;>##;;;>#;>;##;;&&&%##;;@;#;;;#;#;;;#;;#",
"##;;;>##;;##;;>;&;;;;;;;#;;#;&&;;;;#;;#;;",
"#>;##;>;##>>@;%%;1qpfpq1;@;;;;;;;#;;##;;#",
"###;###>>#####;#<ekFKAze<;######@;O##;###",
"###>#>##@##>;@;,wzAKLKAzw,&##;#&>#;;%%@;#",
">####>&#;#&##O;7hAKJJKKAh7>##&#;##@#;;%%>",
">#####&&&>##;@>umAGAFAHAnu>#;&#&;#;%%%;%#",
"###>#>&&&&##;O-sCAAAAAAAVs>####;O;@%;%@@#",
"###&>@##*O;O;@%rxMBBNNNMxr>@#;###%#%%;%; ",
"#&##@#&#*O@*@@;5tzbvxcbzu5####%%@@#%%@@;*",
"##>###@@@@;O@@;;3ijjzjju3;@####%@@@@@@@@@",
"o&o##@@@@@@@@@@@-2wdgsw2>&@@O#@@@@@@@@@@*",
"@@@@@@@@ @@@@*@OOO,7w7<@ @@@@#@@@@@ O@@@@",
" @@O@@O@@OO@@O@ %O%-;;#@@@@@@OO@@@@@@@O@ ",
"@@O@@O@@@@@@@O@@*O%OOOO@@ @@@ @@O@@@@@@@*",
"@O@@O@@@ @@O@@@@*OOOO@@O@@@@@OO@@# @O @@@",
"@@ @@@O@ O@@@& @@@  O*  & @  *   *  *  **",
"O  O@@@  @    @@ @O  *** * * *** *o*  *  ",
"# @   O@@@ @@    @ *     & *   **o & * * ",
" # @@    @ @&  &@ @X *X*  * *   o*   *   ",
" @ @ @ @ *   @o@    * @ * *X  X o  *  *  ",
"O O @ O    *   o* *    *    * * *  *    *",
"@@ @ @ @*    @ @XO*  XO * ** *  X*X * *  ",
"  @   @ * *    oX  OXX O      XX         ",
" X X OX   *  XXX O  XX X  O XXXO    X XX ",
"X X           *     XXO   O XXXX    XXXX ",
"    *         X     X..   XX X      XXXX*",
"       X        O   XXXOO XXX         XXX"
};
