/* XPM */
static char *title_3_active_xpm[] = {
/* columns rows colors chars-per-pixel */
"44 44 14 1 ",
"  c #39393C",
". c #3A393C",
"X c #3A393D",
"o c #393A3C",
"O c #3A3A3C",
"+ c #3A3B3D",
"@ c #3B3B3F",
"# c #3B3C3F",
"$ c #3C3C3F",
"% c #3C3C40",
"& c #3C3D40",
"* c #3D3D40",
"= c #3E3F42",
"- c #3F4043",
/* pixels */
"--------------------------------------------",
"--------------------------------------------",
"--------------------------------------------",
"--------------------------------------------",
"--------------------------------------------",
"--------------------------------------------",
"--------------------------------------------",
"=======-========--============---&--&-&----&",
"================&---#-#-========-#------====",
"================--#-----=======--#-#--&-====",
"-===============-&#---#-========--#-##--==--",
"================-----#--========-------&====",
"================&&---%----======--#---%-====",
"============#==----+---%%#======---#%%--====",
"=#==#=#===#==%=#&-+--#-#-##-#-#--%%=%-=%==%=",
"===#===#=#==%=%-+--+#-#-#--#-#-#%%--%%%%==+=",
"#--%%--#-%-$===$-+-&-&-&-&-&%&-&=$===$=+-==+",
"##--%%%-$=$=$$==-&&-&%&%-&+-&-&-===$====%=%-",
"--##%-=%=%-$=$$=-+&--&&-&-+&+-&-=$$=+-$$-+==",
"##-%%#%%$$$$=$=$+-&+&&+&-+&-&&&+$$=$%$$==%=+",
"###&+%===$=%=$$$&-&&&&&&&&&&&&&&$=$$=$$$++=+",
"#-&&==%+=+=$%$$=&+&&&&&&&&&&&&&&$=+=$$=$%-%%",
"&&&&+%+%=++=$$%%-&&&&&&&-&&&-&&-$$$=$$$=%=+=",
"&#&&%==+=%=+$$=%+&&&&&&&o%&o&&+&=$$$$=+$+==+",
"#&##-###%%%%%%%%%##=##-%&&%%o%&&%+%%%%%=%%%%",
"########%%%%%%+%+#=%%###o%&&&&&&%%=+%%+%% %%",
"########%%%++%%%+=++##%%&o&o%&o&+%%%+%%$X%% ",
"########%++%%++%+++###+%%%&%%o%&%%+o%++$%%%%",
"+%%%####++++$$X$++%X%%+#%o% oo%%+%+%oo %o %%",
"+o+o##+++X++XX$+$+++%o+%o%o%%%o%+%%+%o%o%%% ",
"++%+++o#%++%$$%$$+%+&oooooo%%%% %+oo%o %o%  ",
"%+o+%%o+XX%+$X++X+%+oo%%o%o% oo%o%%o%o%%  %%",
"++++X+%%X+%+ % +X%XX+XX%X+% + % X% % %%  %% ",
"++++X+X++X +% % .$+$X++X+X+ %  %  %     %   ",
"++++X%%XX +  %  $X$$+XX+ %X% X % %  %%o%   %",
"+++++XX++XX%%  %.. XX%+X  +  %X %  % %  % % ",
"+X+X++X+ %%  % %  $. $$ % + %  +  %    %   %",
"X+X++X+XX  X    $    . $     %%X%  % % %% % ",
"+X+XX+XX %% %  %$  $$ $ %% %X %+ %       % %",
"X+X+XXX+%            ..   +         %       ",
"  X+XXXX       %      $     $...     %    % ",
"   +XXX+      X $    +..  . X..             ",
"            XXXX      $   ..X +         %   ",
"      X      X X        +  ..          %    "
};
