/* XPM */
static char *top_right_inactive_xpm[] = {
/* columns rows colors chars-per-pixel */
"8 44 21 1 ",
"  c #39393C",
". c #3A393C",
"X c #3A393D",
"o c #393A3C",
"O c #393A3D",
"+ c #3A3A3C",
"@ c #3A3A3D",
"# c #3A3B3D",
"$ c #3A3A3E",
"% c #3A3B3E",
"& c #3B3B3E",
"* c #3B3B3F",
"= c #3B3C3F",
"- c #3C3C3F",
"; c #3C3C40",
": c #3C3D40",
"> c #3D3D40",
", c #3D3E41",
"< c #3E3F42",
"1 c #3F4043",
"2 c None",
/* pixels */
"11222222",
"11222222",
"11122222",
"11112222",
"11111222",
"11111122",
"11111122",
"<<<<<122",
"<<<<<<<<",
"<<<<<<<<",
"<<<<<<<<",
"<<<<<<<<",
"<<<<<<<<",
"<<<<<<<<",
"<<=<=<:<",
"<<<:<:<:",
"<:<:<:=<",
":<:<:<<<",
"<:<::<<-",
"<=::===<",
"==::::::",
"<=::::::",
":::::::=",
":::::::=",
"::<$<<$=",
"<=--$---",
"$---====",
"$$$-====",
"=..=$$==",
"=====$$=",
".=.==$$=",
".===$$$=",
".==.=o==",
"=.$$.=oO",
"$$$$$$$$",
"$$$$.$$$",
".$=..=.$",
"$...$.=.",
".=.=..$$",
".....$$.",
".oo.$$oo",
"ooo.$$oo",
"oo..$.oo",
"oo....oo"
};
